<svg id="Calque_1" data-name="Calque 1" xmlns="http://www.w3.org/2000/svg" viewBox="0 0 1161.57 1161.57"><defs><style>.cls-1{fill:#fff;}</style></defs><title>Plan de travail 33 copie 2Icones V2</title><path class="cls-1" d="M625.12,889.88c-202.8,33-342.41-101.7-362.5-253.55C239,457.65,374.2,304,547.24,298.23c180.56-6,302.27,139,307.72,275.34-19.73-4.95-39.72-10-59.76-14.92a39.65,39.65,0,0,0-10.19-1c-13.26.3-20.21-6.46-22.27-19.13a11.37,11.37,0,0,0-1.86-4.75c-8.69-11.88-5.62-19.8,7.34-26,2.76-1.32,5.62-8.49,4.41-11.09-7.46-16-13.94-32-30.7-42.71-10.07-6.45-17.21-20.19-21.63-32.14-8.31-22.46-23.48-34.12-46-39.49A301.65,301.65,0,0,1,627,366.7c-27.28-11.52-55.37-8.38-83.35-6.22-14.24,1.1-28.28,4.77-42.48,7.29,4.85,20.35,4.88,20.46-13.51,25.71-10,2.86-12.94,10.82-13.68,19.58-.6,7.13.51,14.4.92,22.74-27.74,4.12-55.79,19.57-82.78-4.66-7.73,25.34-22.84,45.13-42.5,60.34-23.31,18-30.23,43-36,69.47-6.63,30.3-3.71,57.71,24.14,80.36l-16.64,1.31c2.16,12.8,13.71,15.58,21.6,23.43,10.12-10.77,18.73-6.36,29.7.34,17.62,10.75,36.61,19,56.7,1.87,3-2.53,15.92,1.22,19.29,5.75,6,8,10.54,18.69,11.32,28.6,1.78,22.76,19.48,34.84,41.57,27.42,6-2,15-2,20,1.19,6.74,4.27,6.44,12.29,3,20.67-2,4.82-.09,12.44,2.47,17.59a125.61,125.61,0,0,0,16.67,25.43,35.87,35.87,0,0,0,16.42,10.9c9.14,2.6,12.63,7.85,17.25,16,11.29,19.92,25.8,38,39.09,56.81C618.67,882,621.45,885.24,625.12,889.88Z"/><path class="cls-1" d="M763.79,964.47c-30.64-36.4-59.31-70.28-87.77-104.34-18-21.59-36.16-42.91-44.54-70.92-23.8-79.59,28.83-162.6,110.39-175.91C799,604,857,633.51,884,681c28.67,50.55,23.63,110.68-14.83,157.55C835,880.16,800.14,921.1,763.79,964.47Zm.66-119c52.92-.21,96.56-43.82,96.26-96.18-.3-52.17-44.41-96.05-96.66-96.17-53.11-.12-96.2,43.6-96,97.38C668.31,803.78,710.87,845.72,764.45,845.5Z"/></svg>