<svg id="Calque_1" data-name="Calque 1" xmlns="http://www.w3.org/2000/svg" viewBox="0 0 566.93 566.93"><defs><style>.cls-1{fill:#a36958;}</style></defs><title>Plan de travail 24Icone</title><path class="cls-1" d="M138,169.71c0-15.32-.06-29.36,0-43.39,0-8.94,2.48-11.51,11.34-11.52q157.15-.07,314.3,0c7.95,0,10.34,2.54,10.34,10.73q0,144.89-.06,289.78c-.06,29.11-23,50.71-54,50.83-71,.26-142.07.08-213.11.08l-82,0c-27.82,0-43.61-14.8-45.13-42.74-.53-9.68-.23-19.42-.23-29.12q0-105.41,0-210.82c0-12.56,1.34-13.85,14.2-13.86Zm15.44-38.65V141.3q0,129.52,0,259c0,16.81,1.15,33.74-9.11,50.22H154.8l169.26.06c31.91,0,63.82.32,95.72-.09,24.49-.32,38.7-15.25,38.7-39.65q0-136,0-272.06c0-2.48-.21-5-.33-7.74ZM95,185.66c0,2.84,0,5.1,0,7.36q0,111.42,0,222.84c0,10.66,1.36,21,9.24,29.1,7.58,7.79,17.32,7.57,24.78-.3S138,427.19,138,417.1q.1-112.16,0-224.31c0-2.23-.26-4.46-.43-7.13Z"/><path class="cls-1" d="M299.94,324.7c-2.84.16-5.33.43-7.82.43-36.75,0-73.5-.11-110.24.17-6.37,0-8.26-1.82-8.16-8.18.35-23.73.14-47.46.17-71.19,0-2.24.26-4.48.43-7H299.94Z"/><path class="cls-1" d="M181,373.94V350.65h252.2v23.29Z"/><path class="cls-1" d="M433.46,404.26v23.12H181.27V404.26Z"/><path class="cls-1" d="M386.77,158.74c-4.58,19.64-8.77,38-13.29,56.25-.39,1.58-2.9,3.57-4.57,3.72-5.55.47-11.16.18-17.22.18l-7.4-32.65-1.47-.11L335.54,218a9.58,9.58,0,0,1-1.89.69c-19,1.59-19,1.58-23.23-16.79-3.24-14.1-6.58-28.19-9.83-42.11a7.67,7.67,0,0,1,1.36-.65c18-2.13,18-2.13,21.63,15.43A65.77,65.77,0,0,0,328,189.17l6.49-29.54a12,12,0,0,1,2.47-.77c16-.93,16-.93,19.62,14.57,1.22,5.17,2.38,10.35,4.88,15.59,1.55-7.42,3.73-14.79,4.46-22.29.65-6.66,3.33-8.94,9.73-8.08C378.91,159.1,382.24,158.74,386.77,158.74Z"/><path class="cls-1" d="M213,185.84V159.37h16.59v58.77c-8.65,1.62-16.71,2.29-23-6.94-4.75-7-11.06-13-18-20.87v28H170.95v-59c8.92-1,17.16-2.48,23.36,7.08,4.76,7.33,11.29,13.51,17,20.21Z"/><path class="cls-1" d="M323.68,267.08c0-2.51,0-4.29,0-6.06.58-18,.59-18,18.4-18q42.15,0,84.31.09h7.08v24Z"/><path class="cls-1" d="M433.5,296.85v23.89H324.18V296.85Z"/><path class="cls-1" d="M445.25,177.16c-7.67-.7-15.53,3.07-21.21-5-1-1.36-4.85-1.19-7.25-.81-1.63.26-3,2.1-4.51,3.23,1.25,1.4,2.26,3.55,3.8,4,4.81,1.56,9.85,2.43,14.76,3.69,11.46,2.93,16.68,8.79,16.23,18.1-.49,10.24-6.71,17.37-17.9,18.4a89.19,89.19,0,0,1-24.16-1c-9.46-1.76-13.55-8.26-13.67-19.14,4.78,0,9.57-.18,14.34.12a6.1,6.1,0,0,1,3.82,2.49c4.87,6.7,11.33,7.25,18.91.33-3.23-1.57-5.87-3.23-8.75-4.17-4.08-1.34-8.38-2-12.5-3.21-11.34-3.42-15.65-9-14.92-19,.65-9,7.19-15.68,17.87-16.7a84.74,84.74,0,0,1,20.45.68C439.23,160.47,444.1,166.78,445.25,177.16Z"/><path class="cls-1" d="M262.74,195.2v9.35h32.63v13.82H243.91V159.26h51.32c0,2.89-.16,5.63,0,8.34.32,4.3-1.49,5.92-5.79,5.77-6.88-.23-13.78.17-20.65-.12-5.48-.23-7.72,1.64-5.62,8.2h27V195.2Z"/></svg>