<svg width="112" height="76" viewBox="0 0 112 76" fill="none" xmlns="http://www.w3.org/2000/svg">
<path d="M22.6544 0.295593C22.6532 7.83992 20.6667 15.2511 16.8944 21.7846C13.1222 28.3181 7.69707 33.744 1.16404 37.5171L0.228516 38.0579L1.16404 38.5986C7.69707 42.3718 13.1222 47.7976 16.8944 54.3311C20.6667 60.8647 22.6532 68.2758 22.6544 75.8201H96.6026C100.526 75.8201 104.289 74.2616 107.063 71.4874C109.837 68.7132 111.396 64.9506 111.396 61.0273V15.0912C111.396 11.1679 109.837 7.40524 107.063 4.63103C104.289 1.85683 100.526 0.298296 96.6026 0.298296L22.6544 0.295593Z" fill="#A36958"/>
<path d="M71.8752 15.3129C80.0274 14.8776 88.7825 21.1262 90.1453 30.8683C91.6568 41.6675 84.6132 49.8738 75.5849 51.7232C69.8392 52.8994 64.6559 51.4772 60.0972 47.8215C59.5185 47.3565 59.1427 47.2808 58.683 47.8729C58.5404 48.0381 58.3869 48.1934 58.2234 48.338C56.7903 49.7683 56.7606 49.7927 58.1044 51.3122C58.6452 51.9125 58.1558 52.1234 57.8476 52.4397C55.1437 55.1328 52.4398 57.8232 49.7359 60.5108C48.1136 62.1331 46.4534 63.7014 44.8825 65.3778C44.0713 66.2376 43.2602 66.216 42.3436 65.7293C41.0501 65.0393 40.0185 63.9442 39.4072 62.6117C39.2198 62.2758 39.1551 61.8852 39.2242 61.5068C39.2933 61.1285 39.4918 60.7859 39.7857 60.5378C44.1335 56.2576 48.4895 51.9855 52.7913 47.6593C53.4889 46.959 53.8539 46.9833 54.4812 47.6836C55.4546 48.7652 55.5006 48.7273 56.5389 47.7026C58.1261 46.137 58.1261 46.137 56.8093 44.3417C49.0275 33.6154 55.2681 17.9816 68.2845 15.5508C69.4958 15.3156 70.6828 15.3778 71.8752 15.3129ZM57.104 33.637C57.104 41.7676 63.8204 48.4759 71.9753 48.4651C80.0328 48.4651 86.7601 41.7189 86.7601 33.6587C86.7601 25.5308 80.0437 18.8387 71.8888 18.8414C63.7853 18.8441 57.104 25.5443 57.104 33.637Z" fill="white"/>
</svg>
