<svg id="Calque_1" data-name="Calque 1" xmlns="http://www.w3.org/2000/svg" viewBox="0 0 566.93 566.93"><defs><style>.cls-1{fill:#a36958;}</style></defs><title>Plan de travail 16Icone</title><path class="cls-1" d="M278.92,294.51c8.45.69,16.44.77,24.22,2.1,17.79,3,33,10.6,42.75,26.69,14.17,23.48,7.91,57.27-13.6,74.49-17.1,13.68-36.86,17.93-58.19,16.6a101.87,101.87,0,0,1-37.17-9.08c-3.28-1.53-4.34-3.3-3.26-6.86,2-6.66,3.62-13.44,5.45-20.16,1.36-5,2.75-5.52,7.69-3.42,12.77,5.44,25.94,8.83,40,6.91,9.29-1.28,17.31-4.94,22.86-13,8.13-11.79,3.77-29.5-8.91-36.15-10.2-5.35-21.22-6.36-32.42-6.15-6.72.13-13.44.68-20.14,1.23-4.29.36-6-1.09-5.48-5.37,2-15.65,4-31.29,6-46.94,1.4-10.91,2.88-21.82,4.18-32.75.8-6.75,1.14-7.2,7.76-7.2H342.2c5.35,0,6.1.76,6.11,6.15q0,10.84,0,21.68c0,4.69-1.08,5.76-5.89,5.76-18.74,0-37.48.05-56.22,0-2.69,0-3.82.6-4.14,3.54C281.25,279.92,280,287.26,278.92,294.51Z"/><path class="cls-1" d="M303.42,141.57q50.57,0,101.15,0c43.87,0,75.88,32.1,75.9,76q0,100.8,0,201.61c0,45.4-31.63,77.11-76.91,77.12q-100.46,0-200.91,0c-45.31,0-76.93-31.7-76.94-77.09q0-100.11,0-200.22c0-45.89,31.49-77.45,77.26-77.46Q253.19,141.55,303.42,141.57Zm-1,341.15q50.23,0,100.46,0c5.06,0,10.24,0,15.15-1,29.93-6.17,48.74-29.56,48.8-60.89q.19-101.85,0-203.69a64.9,64.9,0,0,0-1-13.08c-6.22-29.94-29.55-48.73-60.9-48.79q-101.85-.19-203.69,0a64.93,64.93,0,0,0-13.08,1c-29.94,6.22-48.74,29.56-48.79,60.9q-.19,101.85,0,203.69a65.18,65.18,0,0,0,1,13.08c6.09,29.41,29.28,48.55,59.52,48.77C234,482.9,268.22,482.71,302.4,482.72Z"/></svg>