<svg id="Calque_1" data-name="Calque 1" xmlns="http://www.w3.org/2000/svg" viewBox="0 0 566.93 566.93"><defs><style>.cls-1{fill:#a36958;}</style></defs><title>Plan de travail 18Icone</title><path class="cls-1" d="M351.2,324.7h62.28c4,0,8-.26,12,0,9.33.73,13.17-3,13-12.71-.47-25.34-.16-50.69-.16-76q0-58.44,0-116.88c0-13.7-.62-14.21-14-14.21q-119.55,0-239.11,0c-7,0-14,.45-21-.14-9.4-.81-11.62,4.64-11.54,12.17.11,11.62.84,23.23.86,34.84q.15,79,0,158.07c0,14.12.74,14.87,14.57,14.88q63.53,0,127.05,0c3.26,0,6.52.34,9.58.51C308.2,340.88,307.38,342,292.4,342q-63,0-126,0c-22.51,0-30.35-7.7-30.29-29.81q.26-95.45.61-190.9c0-2.66-.48-5.31-.56-8-.49-15.37,8.51-25.17,24-26,4.66-.25,9.33-.06,14-.06q127.06,0,254.11,0c16.19,0,27.12,8.71,27.44,21.56.19,7.31.15,14.63.16,21.94q0,35.93,0,71.86c0,37.35,0,74.7,0,112.05,0,18.23-8.69,27.06-26.87,27.24-21.34.2-42.69.06-64,0C349.66,342,349.66,341.93,351.2,324.7Z"/><path class="cls-1" d="M314.39,400.63q1.49-39.4,3-78.8c.14-3.66.37-7.34.88-11,.92-6.59,4-11.69,11.37-11.52,7.11.17,9.71,5.67,9.92,11.67.48,14,.31,28,.39,42,0,3.18,0,6.35,0,8.94,12.63.71,23.76,1.33,34.88,2,1.61.09,3.26.65,4.82.44,15.91-2.1,17.25-1.09,20.32,14.64,6.35,32.53.52,63.57-11,94-2.19,5.82-2.74,12.25-4.78,18.15-.75,2.17-3.61,5.16-5.52,5.16-18.94,0-37.88-.28-56.79-1.26-2.18-.11-5.4-4.72-5.89-7.62-.87-5.16-.26-10.63.14-15.95,1.4-18.31-5.07-33.87-15.8-48.26-6.56-8.79-13.19-17.72-18.12-27.43-2-4-1.63-12.07,1.14-15,5.29-5.58,11-.7,15.14,3.93,4.77,5.36,9.11,11.1,13.64,16.67Z"/><path class="cls-1" d="M280.46,172.06v90H178.64v-90Z"/><path class="cls-1" d="M178.25,147.93V130.32H412.74v17.61Z"/><path class="cls-1" d="M413.17,172.12v16.17H304.87V172.12Z"/><path class="cls-1" d="M304.64,261.86V245.67h108.2v16.19Z"/><path class="cls-1" d="M413.13,209.45V225.3H304.89V209.45Z"/><path class="cls-1" d="M178.37,298.84v-17H279.13c5.18,14.06,3.27,17-11.34,17H178.37Z"/><path class="cls-1" d="M413.08,281.84v17H389.65c-10.31,0-20.62-.15-30.93.06-6.45.13-11.79-.7-17-5.73-7.37-7.07-17.88-5.91-26.37.8-2.76,2.18-6,3.74-10.51,6.48V281.84Z"/></svg>