<svg id="Calque_1" data-name="Calque 1" xmlns="http://www.w3.org/2000/svg" viewBox="0 0 566.93 566.93"><defs><style>.cls-1{fill:#a36958;}</style></defs><title>Plan de travail 14Icone</title><path class="cls-1" d="M301.52,145.78q46.21,0,92.43,0c40.09,0,69.33,29.33,69.35,69.49q0,92.11,0,184.22c0,41.48-28.9,70.46-70.28,70.47q-91.79,0-183.59,0c-41.4,0-70.3-29-70.31-70.44q0-91.48,0-183c0-41.93,28.77-70.77,70.6-70.78Zm-.93,311.73q45.9,0,91.8,0c4.62,0,9.35,0,13.84-.91,27.35-5.64,44.54-27,44.59-55.64q.17-93.06,0-186.13a59.3,59.3,0,0,0-.89-11.95c-5.69-27.36-27-44.53-55.65-44.58q-93.06-.17-186.13,0a59.33,59.33,0,0,0-11.95.89c-27.36,5.69-44.53,27-44.59,55.65q-.17,93.06,0,186.13a59.56,59.56,0,0,0,.89,11.95c5.56,26.87,26.76,44.36,54.39,44.56C238.12,457.67,269.35,457.5,300.59,457.51Z"/><path class="cls-1" d="M319.1,382.33c9.42,1.08,13.19,4.69,13.43,12.41.22,7.13-3.6,12.95-9.34,13-14.87.26-29.75.22-44.63,0-5.21-.07-9-4.86-9.42-11-.5-6.6,2.07-11.5,7.21-13.36a40.55,40.55,0,0,1,5.84-1.18V296.08c-1.69-.13-3.49-.23-5.28-.43-6.1-.66-9.86-5.48-9.8-12.54s4-12,10-12.15c10.31-.21,20.63-.19,30.94-.05,7.49.1,11,4.73,11,14.24q0,44.91,0,89.82C319.1,377.26,319.1,379.56,319.1,382.33Z"/><path class="cls-1" d="M297.23,217.82a21.34,21.34,0,1,1,.47,42.69c-11.55.22-21.68-9.78-21.66-21.37A21.67,21.67,0,0,1,297.23,217.82Z"/></svg>