<svg id="Calque_1" data-name="Calque 1" xmlns="http://www.w3.org/2000/svg" viewBox="0 0 566.93 566.93"><defs><style>.cls-1,.cls-2{fill:#a36958;}.cls-2{font-size:183.02px;font-family:MyriadPro-Regular, Myriad Pro;}</style></defs><title>Plan de travail 23Icone</title><path class="cls-1" d="M398.84,135.42H147.06V440.29h8.08c30,0,60.08-.13,90.11.19,3.06,0,7.5,2,8.84,4.36,2.53,4.58-1.5,8.49-8.56,8.56-17.38.17-34.75.12-52.13.13q-24.95,0-49.9-.07c-8.29,0-10-1.72-10-10q0-156,0-312c0-8.74,1.05-9.68,10.05-9.68H400.52c10.06,0,11.56,1.51,11.6,11.66,0,8.94.06,17.87,0,26.81,0,4.82-1.09,9.2-7.21,9.11s-6.11-4.5-6.07-9C398.89,152.2,398.84,144.06,398.84,135.42Z"/><path class="cls-1" d="M451.45,425.19c.12,48.91-34.94,88.31-82.39,93.95-45.84,5.45-89.95-25.28-100.57-70.9-6.18-26.52-1.55-51.52,13.92-74.28,2.68-3.94,5.73-6.79,10.32-3.92,5.1,3.18,3.36,7.2.6,11.43-32.88,50.38-5.43,115,54,123.9,51.81,7.78,92.13-33.59,90.78-81.08-1.14-39.85-32.35-76.11-79.35-77.35-14.49-.38-28.35,3.87-40.91,11.54-1.9,1.16-3.71,2.46-5.59,3.66-3.89,2.5-8.24,2.86-10-1.68-.93-2.44.58-7.49,2.7-9.12,12.21-9.31,26.26-14.52,41.5-16.66,47.42-6.66,95.17,25,104.21,77.77C451.51,417,451.28,421.84,451.45,425.19Z"/><path class="cls-1" d="M213,167.84v13.44h8l112.35,0c1,0,2,0,3,0,4.62-.12,8.8.74,8.86,6.45.07,6.12-4.38,7-9.24,6.94q-8.56,0-17.11,0-53.94,0-107.88,0c-9.69,0-11.57-1.93-11.61-11.75,0-6.45,0-12.9,0-19.34,0-6.11,3-9.1,9.1-9.1h128c4.61,0,8.69,1.13,8.77,6.7.08,6.28-4.45,6.7-9.29,6.69q-55.06-.08-110.11-.05Z"/><path class="cls-1" d="M255.74,281.11H321.9c4.46,0,9.59-.71,9.85,5.88s-4.61,7.37-9.62,7.38q-66.53.05-133.06,0c-4.83,0-9.17-1.08-9.1-7.16s4.35-6.17,8.87-6.15C211.13,281.14,233.43,281.1,255.74,281.11Z"/><path class="cls-1" d="M245.54,327.26H189.79c-4.92,0-10-.11-9.82-7,.16-6.33,4.92-6.42,9.6-6.42q56.49,0,113-.06c5,0,9.55,1,9.64,6.64s-4.39,6.86-9.42,6.83c-19.08-.11-38.16,0-57.23,0Z"/><path class="cls-1" d="M248.87,260.6q-29.78,0-59.55,0c-4.71,0-9.4-.06-9.37-6.54,0-6,4.59-6.38,8.93-6.38q60.67-.06,121.33,0c4.22,0,8.15.71,8.24,6.25.1,6-4,6.67-8.54,6.66h-61Z"/><path class="cls-1" d="M269.23,227.43c-13.63,0-27.26-.09-40.88,0-4.83,0-8.75-1.09-8.63-6.63.11-5.36,4.12-6.79,8.82-6.79q40.51,0,81,0c4.86,0,9.14,1.15,8.87,7.31-.26,5.92-4.59,6.08-9.06,6.06-13.38-.06-26.76,0-40.14,0Z"/><path class="cls-1" d="M222.66,360c-11.64,0-23.28-.05-34.91,0-4.16,0-7.46-.88-7.82-5.76-.38-5.13,2.91-7.42,7.25-7.45,23.52-.19,47.05-.31,70.56.24,2.8.07,7.4,4.09,7.81,6.79.66,4.32-3.18,6.37-8,6.26-11.63-.25-23.27-.08-34.91-.08Z"/><path class="cls-1" d="M216.37,380.5c9.4,0,18.79.08,28.19,0,4.73-.06,8.44,2.14,7.76,6.58-.37,2.44-4.79,6-7.47,6.07-19,.54-38.07.35-57.1.29-4.35,0-8-1.4-7.81-6.73s3.93-6.16,8.25-6.15C197.58,380.53,207,380.51,216.37,380.5Z"/><path class="cls-1" d="M398.06,323c.9-3,.93-7.16,2.9-8.53s8.56-.29,8.61.18a83,83,0,0,1-.1,17.37c0,.42-6.7,1.41-8.7,0S398.94,326.3,398.06,323Z"/><path class="cls-1" d="M391.72,287.07a46.47,46.47,0,0,1-46.46-46c-.06-24.91,20.94-46.3,45.54-46.38,26.88-.09,47.39,20.11,47.31,46.58C438,267.06,417.89,287,391.72,287.07Zm-.45-37.71c4.93,5.14,8.32,8.74,11.79,12.27s7.05,7.42,11.86,2.69c4.65-4.57,1.44-8.38-2.24-11.92-3.84-3.7-7.45-7.64-11.89-12.22,4.84-4.45,9-8.31,13.24-12.16,3.43-3.13,4.46-6.73,1.13-10.36-3.56-3.89-7.24-2.3-10.26.92-4,4.32-7.84,8.88-12.45,14.16-5.17-5.41-9.11-9.47-13-13.6-3.25-3.49-6.92-5.4-10.9-1.59s-2.17,7.81,1.24,10.93c4.33,4,9,7.57,13.82,11.61-6.07,5.93-10.36,10-14.56,14.26-3,3-4,6.59-.77,9.83,3.41,3.41,7.13,2.81,10.33-.73C382.61,259,386.55,254.63,391.27,249.36Z"/><text class="cls-2" transform="translate(338.01 488.74)">!</text></svg>