<svg id="Calque_1" data-name="Calque 1" xmlns="http://www.w3.org/2000/svg" viewBox="0 0 566.93 566.93"><defs><style>.cls-1{fill:#a36958;}.cls-2{fill:#fff;}</style></defs><title>Plan de travail 25Icone</title><path class="cls-1" d="M156.51,178.56c.42-5.66.27-10.73,1.27-15.56a21.35,21.35,0,0,1,23.37-16.85,21.63,21.63,0,0,1,19.18,21.57c0,3.44,0,6.88,0,10.58H243.8c0-3.45-.1-6.75,0-10,.47-13.05,9.71-22.28,22.11-22.17,12.12.11,21.36,10,21.45,22.9,0,3,0,6,0,9.32h43.44c0-3.62,0-7.06,0-10.49.16-12.37,9.41-21.69,21.53-21.74a22,22,0,0,1,21.82,21.69c.08,3.44,0,6.88,0,10.77,8.75,0,17.17,0,25.59,0,14.8,0,25.4,8.71,28.2,23.14a24.06,24.06,0,0,1,.34,4.55q0,68.68,0,137.36c0,5.76-1.82,8.68-5.41,8.73s-5.4-2.79-5.4-8.63q0-42.66,0-85.33c0-1.1,0-2.19,0-3.6H113.59v5q0,80.33,0,160.67c0,12.09,6.71,18.77,18.81,18.77l145.26,0c1.39,0,2.78-.06,4.16,0,3.24.2,5.27,1.94,5.39,5.18s-2,5-5.08,5.57a18.54,18.54,0,0,1-3.32.06q-73.67,0-147.35,0c-17.08,0-28.68-11.63-28.68-28.78q0-107,0-213.94c0-17.08,11.66-28.63,28.81-28.67C139.89,178.55,148.18,178.56,156.51,178.56Zm217.67,10.89c0,4,.1,7.63,0,11.21A21.66,21.66,0,0,1,352,221.89c-12-.12-21.07-9.25-21.22-21.48,0-3.56,0-7.11,0-10.73H287.38c0,3.49,0,6.67,0,9.85a22.22,22.22,0,0,1-5.1,14.61c-6,7.15-15.12,9.62-24.1,6.64-8.14-2.7-13.84-10.58-14.32-20-.18-3.67,0-7.36,0-11h-43.5c0,4.09.31,7.86-.1,11.55a26.3,26.3,0,0,1-2.42,9.1c-4.75,9.16-14.28,13.31-24.16,11A21.66,21.66,0,0,1,157,200.6c-.12-3.67,0-7.35,0-11.2-9.71,0-18.72-.21-27.72.07a15.44,15.44,0,0,0-14.73,12c-.89,3.7-.83,7.67-.87,11.52-.11,10.08,0,20.17,0,30.39H417.45c0-13.25.37-26.27-.14-39.25-.31-8-7.07-14.22-15.12-14.57C393.07,189.14,383.92,189.45,374.18,189.45Zm-97.72-5.07c0-5,.12-10-.06-15a17,17,0,0,0-1.27-6.41,10.68,10.68,0,0,0-20.32,4.51c-.23,10.67-.19,21.34-.07,32,.08,7,4.54,11.52,10.93,11.51s10.63-4.64,10.77-11.69C276.55,194.36,276.47,189.37,276.47,184.38Zm-87-.1c0-5.4.05-10.81,0-16.21-.08-6.18-4.29-10.8-10.05-11.15a10.92,10.92,0,0,0-11.47,10.28q-.47,16.82,0,33.67c.16,6.21,5.3,10.39,11.43,10.17,5.84-.2,10-4.67,10.1-11C189.52,194.81,189.47,189.55,189.46,184.28Zm173.88-.07c0-5.27.08-10.53,0-15.8-.12-6.41-4.88-11.4-10.78-11.5-6.26-.1-10.81,4.68-10.86,11.6q-.1,15.59,0,31.18c0,6.76,4.3,11.26,10.56,11.34s10.94-4.58,11.07-11.45C363.43,194.47,363.35,189.34,363.35,184.21Z"/><path class="cls-1" d="M287.39,400.92a70.1,70.1,0,0,1,70.34-70.24c38.68-.11,70.5,31.32,70.59,69.72.09,39.26-31.27,71.13-70.06,71.21A70.33,70.33,0,0,1,287.39,400.92Zm10.88-.07a59.58,59.58,0,0,0,59.49,60c32.53.08,59.71-27,59.75-59.48a59.62,59.62,0,0,0-119.23-.47Z"/><path class="cls-1" d="M298.09,281.8c3.6,0,7.2-.06,10.8,0a10.81,10.81,0,0,1,11,10.67c.21,5.39.23,10.8,0,16.19-.25,6.33-4.43,10.75-10.75,11-7.46.29-15,.29-22.41,0-6.14-.26-10.09-4.7-10.23-10.89-.12-5.4-.21-10.8,0-16.19.26-6.73,4.48-10.66,11.18-10.76C291.16,281.76,294.63,281.8,298.09,281.8Zm-10.47,26.64h21.19V292.89H287.62Z"/><path class="cls-1" d="M168.12,281.79c3.6,0,7.2-.1,10.79,0,6.15.21,10.36,4.39,10.51,10.55.14,5.67.12,11.35,0,17a10.16,10.16,0,0,1-10,10.23c-7.6.26-15.22.26-22.82,0-6.16-.23-10.38-4.91-10.52-11.16-.12-5.26-.12-10.52,0-15.77.17-6.44,4.68-10.75,11.2-10.86C160.93,281.74,164.53,281.79,168.12,281.79Zm-11,26.73h21.27V292.86H157.12Z"/><path class="cls-1" d="M363.42,281.8c3.46,0,6.92-.06,10.38,0,6.34.13,10.88,4.25,11.15,10.51.24,5.66.23,11.35,0,17a10.67,10.67,0,0,1-10.49,10.33c-7.46.25-14.95.25-22.41,0-6.45-.26-10.3-4.61-10.39-11.13q-.11-8.09,0-16.19c.1-6,4.42-10.33,10.54-10.49,3.73-.1,7.47,0,11.21,0ZM374,308.66V292.83H352.76v15.83Z"/><path class="cls-1" d="M233.27,281.79c3.46,0,6.92-.06,10.38,0,6.39.12,10.79,4.29,11,10.57.15,5.39.19,10.8,0,16.19-.19,6.65-4.32,10.9-10.95,11.1-7.19.21-14.4.21-21.59,0a10.87,10.87,0,0,1-10.88-10.85c-.2-5.25-.21-10.52,0-15.78.24-7.06,4.61-11.17,11.69-11.27C226.35,281.75,229.81,281.79,233.27,281.79Zm10.36,11.12H222.32v15.62h21.31Z"/><path class="cls-1" d="M232.92,379.26c3.6,0,7.21-.12,10.8,0,6.22.25,10.69,4.6,10.9,10.81.19,5.67.17,11.36,0,17a10.64,10.64,0,0,1-10.51,10.28q-11,.32-22,0a10.93,10.93,0,0,1-10.78-10.58,167.67,167.67,0,0,1,0-17c.3-6.09,5.06-10.37,11.25-10.53,3.46-.09,6.93,0,10.39,0Zm10.5,27.17V390.37H222.32v16.06Z"/><path class="cls-1" d="M168,379.26c3.32,0,6.65,0,10,0,7,.12,11.44,4.48,11.51,11.38.05,5.26.1,10.53,0,15.78-.13,6.37-4.26,10.79-10.62,11q-11,.34-22,0a11.06,11.06,0,0,1-10.68-11.12c-.11-5.26-.13-10.53,0-15.78a11.21,11.21,0,0,1,11-11.21C160.76,379.14,164.37,379.26,168,379.26Zm10.53,11.14H157.2v15.93H178.5Z"/><path class="cls-1" d="M167.94,368.41c-3.61,0-7.21.06-10.82,0-6.24-.12-10.79-4.46-11-10.69-.17-5.4-.15-10.82,0-16.23A10.77,10.77,0,0,1,157,330.65c7.21-.15,14.43-.17,21.63,0,6.77.16,10.74,4.34,10.83,11.1.07,5.27.08,10.54,0,15.81-.1,6.46-4.23,10.64-10.67,10.82C175.16,368.5,171.55,368.41,167.94,368.41Zm10.36-11V341.72H157.25v15.66Z"/><path class="cls-1" d="M233,368.4c-3.47,0-6.94.06-10.41,0-6.63-.13-11.08-4.22-11.35-10.76-.22-5.4-.22-10.83,0-16.23.27-6.39,4.52-10.55,10.94-10.7q11-.27,22.06,0A10.35,10.35,0,0,1,254.61,341c.21,5.68.21,11.38,0,17.06-.23,6.13-4.62,10.22-10.78,10.34-3.61.08-7.21,0-10.82,0Zm-10.77-11h21.3V341.84h-21.3Z"/><path class="cls-1" d="M287.39,341.51c0,5-.16,9.25.11,13.5a5.34,5.34,0,0,0,2.27,3.27c2.31,1.66,3.83,3.95,2.42,6.29a8.47,8.47,0,0,1-5.66,3.63,9.35,9.35,0,0,1-9.73-8.39,177.26,177.26,0,0,1,0-20.32,9.53,9.53,0,0,1,9.51-8.74c7.47-.21,14.95-.1,22.42-.09,3.5,0,5.54,1.81,5.53,5.31s-2.24,5.36-5.56,5.47c-5.25.18-10.52.05-15.78.05Z"/><path class="cls-1" d="M298.27,400.84a59.62,59.62,0,0,1,119.23.47c0,32.51-27.21,59.56-59.75,59.48A59.58,59.58,0,0,1,298.27,400.84Zm48.56,19.89c-6.22-6.33-11.91-12.18-17.66-18-3.32-3.33-6.62-3.73-9-1.27-2.57,2.65-2.17,5.46,1.35,9q10.12,10.15,20.3,20.24c3.86,3.83,6.4,3.84,10.23,0q11.35-11.27,22.65-22.59c7.15-7.15,14.33-14.26,21.4-21.49,2.88-2.95,3-6.19.41-8.39-2.87-2.46-5.6-1.72-8.09.73q-2.67,2.62-5.31,5.27Z"/><path class="cls-2" d="M346.84,420.73,383.1,384.3q2.64-2.65,5.31-5.27c2.49-2.45,5.22-3.2,8.09-.73,2.56,2.19,2.47,5.44-.41,8.39-7.07,7.23-14.25,14.34-21.4,21.49q-11.31,11.31-22.65,22.59c-3.83,3.81-6.37,3.79-10.23,0q-10.17-10.1-20.3-20.24c-3.53-3.53-3.92-6.34-1.35-9,2.38-2.45,5.68-2.05,9,1.27C334.93,408.55,340.61,414.4,346.84,420.73Z"/></svg>