<svg id="Calque_1" data-name="Calque 1" xmlns="http://www.w3.org/2000/svg" viewBox="0 0 566.93 566.93"><defs><style>.cls-1{fill:#a36958;}</style></defs><title>Plan de travail 33Icone</title><path class="cls-1" d="M138.34,476.3c.69,2.83,1.29,4.86,1.67,6.92,1.06,5.7,4.55,15.09,2.57,16.45-7.1,4.88-16,7.36-24.44,9.88-1.29.38-5-3.47-5.81-6C98.61,463.12,85.24,422.52,71.57,382c-2.18-6.46-.79-10,5.89-12,5.79-1.71,12.06-7.13,16.87-5.92,25.19,6.32,40.28-13.8,59.6-22,18.56-7.83,36.2-9.66,55.06-4.26,10.27,2.94,20.28,7.77,30.71,8.86a234.25,234.25,0,0,0,43.37,0c23.07-1.9,46-5.32,69.06-7.68,4.81-.49,10.83-.72,14.52,1.67,8.42,5.46,14.42,3,22-1.84,30.9-19.84,62.16-39.13,93.47-58.33,13-8,26.19-4.8,31.94,6.88s1.33,34.37-8.78,42.89q-64.64,54.51-129.38,108.9-16,13.44-31.93,26.88c-21.29,18-45.09,24.8-72.64,17.49-19.61-5.21-39.66-8.81-59.17-14.35C186.77,462.06,162.87,466.06,138.34,476.3Zm-3.67-9.92c6.32-1.69,11.51-2.82,16.52-4.48,17.23-5.72,34.74-8.08,52.62-3.94,23.58,5.46,47,11.47,70.63,16.89,22.1,5.08,42.61,1.59,60.32-13.27q82.8-69.43,165.44-139c5.76-4.84,9.22-10.36,4.09-17.49-4.74-6.6-10.78-5.49-17.06-2.09-32,17.3-63.89,34.65-96,51.66-5.12,2.71-6.94,5.65-6.87,11.54.17,14.31-6,22.49-19.67,27.08-9.44,3.17-19.1,5.68-28.67,8.45-25.3,7.32-50.57,14.74-76,21.77-2.4.67-5.48-1.08-8.24-1.7,1.88-2.45,3.5-5.17,5.73-7.24,1.14-1.05,3.38-.87,5.1-1.36,32.51-9.32,65-18.59,97.5-28,10.59-3.08,17.09-12.35,15.5-21.28-1.91-10.72-11-17-23.08-15.68-13.81,1.55-27.65,3-41.38,5.05-36.63,5.59-72.67,7.51-108.39-6.69-9.42-3.75-22.74-4-32.1-.34-22.05,8.65-42.8,20.64-64.6,31.54Zm-.6,28.19L94.86,373.65,80.72,379l39.6,120.06ZM503,289.59c-7.79-7.21-17-4.53-30,8.82Z"/><path class="cls-1" d="M345.57,289.63c-14.13-2.31-27.72,2.37-40,13.69-8.34,7.72-18.43,13.57-27.92,20-2.24,1.52-5.18,2-7.83,2.94-5.39,1.83-10.79,3.65-16.21,5.38-2.67.85-5.46,2.21-8.12,2.07-9.87-.53-28.19-22.77-28.62-32.53-.58-13.19,2.88-23.29,12.79-33,9.3-9.14,15.42-21.57,22.65-32.75,8.41-13,7.66-27.75,8-42.43,1.4-57.34,61.81-100.79,116.43-84,45.51,14,74.08,57.11,67.2,101.46C436.54,258.51,397.33,290.8,345.57,289.63ZM244.82,264.72c14.73,9.37,31.32,20.31,48.43,30.36,2.3,1.35,8-.75,10.79-2.93,11.54-9,24.17-13,38.82-11.83,56.36,4.66,98.25-39.32,91.23-95.54-4.87-39-41.7-70.32-82.22-69.9-41.57.43-77.36,32.06-81.31,72-1.15,11.66.27,24.16-3.52,34.85C261.86,236.36,252.83,249.65,244.82,264.72Zm41,37.3c-14.82-9.49-28.5-18.43-42.43-27-1.68-1-4.71.15-9,.43C254.37,293.22,279.13,306.39,285.79,302Zm-11.44,11.89-48.6-30.84C229.53,296.5,264.1,317.6,274.34,313.91ZM227.6,303.45c12.8,19.86,17.05,22.39,24.62,15.72Z"/><path class="cls-1" d="M134.07,494.57l-13.76,4.49L80.72,379l14.14-5.36Z"/><path class="cls-1" d="M352.15,131.36c16.56.22,31.53,5.14,43.84,16.55,2.06,1.91,2.3,5.78,3.38,8.74-2.93-.49-6.59,0-8.67-1.62-25.62-19.54-51.34-19.63-76.34-.24-2.19,1.7-5.81,1.54-8.77,2.25,1.11-3.2,1.28-7.42,3.48-9.43C321.13,136.53,335.81,131.72,352.15,131.36Z"/><path class="cls-1" d="M324.26,52.23a30.44,30.44,0,0,1,2.19,4c3.39,9.34,6.68,18.72,10,28.07.91,2.53,1,4.77-2,5.78s-4.26-.92-5.13-3.4c-3.31-9.37-6.75-18.7-9.88-28.12a7.17,7.17,0,0,1,.77-5.08C320.66,52.64,322.64,52.67,324.26,52.23Z"/><path class="cls-1" d="M372.76,74.13c-1.76,3.71-3.22,7.61-5.43,11-.88,1.37-3.41,1.69-5.18,2.49-.49-1.89-1.91-4.17-1.31-5.6,3.26-7.7,6.85-15.27,10.76-22.66.72-1.36,3.4-1.67,5.18-2.47.49,1.89,1.81,4.06,1.3,5.61C376.74,66.54,374.59,70.28,372.76,74.13Z"/><path class="cls-1" d="M294.41,101.65c-3.69-1.75-7.57-3.22-11-5.4-1.39-.89-2.8-3.56-2.45-5,.69-2.91,3.29-2.79,5.73-1.62,7.52,3.59,15.14,7,22.5,10.88,1.34.71,1.61,3.41,2.38,5.19-1.89.47-4.05,1.77-5.61,1.24C302,105.62,298.25,103.47,294.41,101.65Z"/></svg>