<svg width="39" height="34" viewBox="0 0 39 34" fill="none" xmlns="http://www.w3.org/2000/svg">
<rect width="39" height="34" fill="white"/>
<path d="M27.358 27.7532C25.7382 28.6529 23.931 29.2655 22.0396 29.5563C20.1482 29.847 18.2096 29.8102 16.3346 29.4478C14.4595 29.0854 12.6847 28.4046 11.1114 27.4442C9.5382 26.4838 8.19733 25.2627 7.1654 23.8506C6.13347 22.4384 5.43069 20.8629 5.09719 19.214C4.76368 17.5651 4.80598 15.8751 5.22167 14.2404C5.63736 12.6057 6.4183 11.0585 7.5199 9.6869C8.6215 8.31535 10.0222 7.14639 11.642 6.24676C13.2618 5.34713 15.069 4.73445 16.9604 4.4437C18.8518 4.15295 20.7904 4.18983 22.6654 4.55223C24.5405 4.91462 26.3153 5.59544 27.8886 6.55581C29.4618 7.51618 30.8027 8.73729 31.8346 10.1494C32.8665 11.5616 33.5693 13.1371 33.9028 14.786C34.2363 16.4349 34.194 18.1249 33.7783 19.7596C33.3626 21.3943 32.5817 22.9415 31.4801 24.3131C30.3785 25.6846 28.9778 26.8536 27.358 27.7532Z" fill="#FCD500"/>
<path d="M17.0625 17H19.5V22.6667H22.75M19.5 11.3333H19.5163M22.0396 29.5563C23.931 29.2655 25.7382 28.6529 27.358 27.7532C28.9778 26.8536 30.3785 25.6846 31.4801 24.3131C32.5817 22.9415 33.3626 21.3943 33.7783 19.7596C34.194 18.1249 34.2363 16.4349 33.9028 14.786C33.5693 13.1371 32.8665 11.5616 31.8346 10.1494C30.8027 8.73729 29.4618 7.51618 27.8886 6.55581C26.3153 5.59544 24.5405 4.91462 22.6654 4.55223C20.7904 4.18983 18.8518 4.15295 16.9604 4.4437C15.069 4.73445 13.2618 5.34713 11.642 6.24676C10.0222 7.14639 8.6215 8.31535 7.5199 9.6869C6.4183 11.0585 5.63736 12.6057 5.22167 14.2404C4.80598 15.8751 4.76368 17.5651 5.09719 19.214C5.43069 20.8629 6.13347 22.4384 7.1654 23.8506C8.19733 25.2627 9.5382 26.4838 11.1114 27.4442C12.6847 28.4046 14.4595 29.0854 16.3346 29.4478C18.2096 29.8102 20.1482 29.847 22.0396 29.5563Z" stroke="#33363F" stroke-width="2" stroke-linecap="round" stroke-linejoin="round"/>
</svg>
