<svg id="Calque_1" data-name="Calque 1" xmlns="http://www.w3.org/2000/svg" viewBox="0 0 566.93 566.93"><defs><style>.cls-1{fill:#a36958;}</style></defs><title>Plan de travail 27Icone</title><path class="cls-1" d="M177.06,127.26c2.59,1.83,4.78,3,6.45,4.62,12.41,12.27,24.7,24.66,37.07,37,3.35,3.33,5.12,6.85,1.15,10.7S214.28,181.3,211,178c-12.3-12.38-24.79-24.57-36.86-37.17-1.9-2-2.76-5.76-2.6-8.63C171.65,130.62,174.81,129.18,177.06,127.26Z"/><path class="cls-1" d="M450.85,401.39c-1.39,1.85-2.62,5.11-4.23,5.31-2.81.35-6.7-.27-8.64-2.09-9.91-9.26-19.35-19-29-28.62-3.33-3.33-7.34-6.25-9.7-10.17-1.4-2.32-1.2-6.84.24-9.15.82-1.32,6.79-1.47,8.37,0,13.66,13,26.87,26.39,40.13,39.76C449.15,397.57,449.66,399.25,450.85,401.39Z"/><path class="cls-1" d="M270.49,125.47c0,7.21.62,14.49-.3,21.58-.37,2.84-4.13,5.24-6.35,7.85-2.2-2.63-6.18-5.18-6.29-7.9-.63-14.66-.63-29.38,0-44,.12-2.69,4.14-5.22,6.36-7.82,2.19,2.63,5.93,5.07,6.28,7.92C271.09,110.43,270.49,118,270.49,125.47Z"/><path class="cls-1" d="M166.92,228.14c-7.18,0-14.43.59-21.5-.29-2.88-.36-7.11-3.54-7.65-6.08-1.09-5.14,3.11-6.9,7.88-6.89,14.63,0,29.28-.32,43.89.32,2.65.12,5.13,4.19,7.69,6.44-2.64,2.17-5.1,5.85-8,6.2C181.9,228.73,174.38,228.13,166.92,228.14Z"/><path class="cls-1" d="M453.07,321.3c-6.93,0-14,.7-20.74-.31-3.12-.47-5.73-4.29-8.58-6.59,2.73-2.12,5.39-5.95,8.21-6.07,14.39-.62,28.83-.62,43.21,0,2.79.12,5.42,4,8.13,6.15-2.87,2.27-5.53,6.07-8.66,6.51C467.58,322,460.28,321.3,453.07,321.3Z"/><path class="cls-1" d="M363.66,411.41c0,6.93.66,13.95-.29,20.74-.45,3.19-3.58,7.9-6.25,8.48-5,1.1-6.75-3.3-6.73-8.07.06-14.13-.35-28.28.31-42.39.14-3,3.64-8,6.2-8.45,5.7-.94,6.86,4,6.79,8.89C363.58,397.55,363.66,404.48,363.66,411.41Z"/><path class="cls-1" d="M194.11,471.79c-35.35-.22-66.21-20.82-78.92-52.14-13.38-33-6.06-69.6,18.83-94.46q39.05-39,78.06-78.06c32.85-32.78,83.8-34.46,118.3-4,8.4,7.43,9.92,15.56,4.2,22.46-5.36,6.46-14.51,7.26-21.22.62-22.49-22.22-59.8-21.74-83.54,3.15-25.18,26.41-51.87,51.39-77.13,77.73-29.47,30.73-16.27,81.24,24,93.4,21.34,6.44,40.61,1.93,56.76-13.35C248.55,412.91,263,398,277.69,383.27c5.21-5.21,11.14-6.76,17.75-3.24,6,3.17,8.23,8.69,6.77,15a20.15,20.15,0,0,1-5.28,8.9q-21.44,22-43.32,43.56C236.91,463.88,216.37,471.09,194.11,471.79Z"/><path class="cls-1" d="M392.93,101.7c34.32-.16,65.7,20.37,78.61,51.42a86.63,86.63,0,0,1-18.71,95.3q-39,39.06-78.06,78.06c-32.91,32.75-83.78,34.31-118.29,3.74-8.35-7.4-9.82-15.61-4-22.46,5.43-6.41,14-6.6,21.33-.48,27.79,23.09,57.59,22,83.29-3.45s51.55-50.87,76.67-76.93c29.95-31.07,17-81.93-23.66-94-21.34-6.34-40.6-1.78-56.73,13.54-14.63,13.89-28.62,28.45-43,42.64-7.79,7.7-15.48,8.41-21.89,2.26-6.08-5.83-5.57-14.68,1.58-21.94,14.37-14.58,28.73-29.19,43.37-43.5C349.92,109.77,370.17,102.54,392.93,101.7Z"/></svg>