<svg id="Calque_1" data-name="Calque 1" xmlns="http://www.w3.org/2000/svg" viewBox="0 0 566.93 566.93"><defs><style>.cls-1{fill:#a36958;}</style></defs><title>Plan de travail 19Icone</title><path class="cls-1" d="M290.34,259.95v54.32h7.18c27.77,0,55.54,0,83.32.06,14,0,19.42,5.6,19.47,19.65.05,13.83,0,27.66,0,42.36,5.5,0,10.36-.16,15.21,0,7.66.3,11.52,4.18,11.68,11.74.15,7.39.19,14.79,0,22.17-.19,7.2-4.16,11.15-11.4,11.23q-20.49.23-41,0c-7-.07-11-3.62-11.38-10.59a219.58,219.58,0,0,1,0-24.17c.36-6.51,4.34-10,11-10.37,4.88-.27,9.8-.05,15.78-.05,0-11.12,0-21.76,0-32.4,0-2-.11-4-.1-6,.09-13.26.1-13.23-13.46-13.22q-39.64,0-79.29,0c-2.18,0-4.36.19-6.9.3v51.33c5.13,0,10-.15,14.83,0,7.53.29,11.55,4.36,11.67,11.8s.16,14.79,0,22.17c-.17,7.08-4.29,11.11-11.46,11.18q-20.16.18-40.32,0c-8.11-.07-12-3.85-12.15-11.89q-.27-10.74,0-21.5c.21-7.66,4-11.41,11.7-11.76,4.67-.21,9.37,0,14.59,0V324.68H266.45c-26,0-52,.13-77.94-.08-6.36-.05-8.85,2.22-8.72,8.64.28,14.05.09,28.11.09,43.07,5.27,0,9.9-.1,14.52,0,8.26.23,12.26,4.32,12.32,12.57.06,6.94.09,13.89,0,20.83-.13,7.65-4,11.69-11.57,11.76q-20.49.21-41,0c-7.55-.09-11.38-4.12-11.54-11.82-.14-7.16-.16-14.34,0-21.5.16-7.43,4.19-11.47,11.73-11.8,4.68-.21,9.37,0,15.14,0,0-8.61,0-16.81,0-25,0-6-.06-12.09,0-18.14.07-12.53,6.48-18.9,19.16-18.91q41.66,0,83.32,0h7.55V260c-4.75,0-9.16.09-13.57,0C257,259.72,253.13,256,253,247.29q-.2-10.08,0-20.16c.17-8.54,4-12.33,12.32-12.37,13-.06,26-.12,39,0,8.87.07,12.61,3.92,12.68,12.71q.08,9.74,0,19.48c-.07,9.09-3.92,12.88-13.2,13C299.51,260,295.28,259.95,290.34,259.95Z"/><path class="cls-1" d="M285.31,103.1q62.24,0,124.47,0c54,.06,93.37,39.5,93.4,93.58q.06,124,0,248.09c0,55.87-38.92,94.88-94.65,94.9q-123.62,0-247.24,0c-55.75,0-94.67-39-94.69-94.86q0-123.19,0-246.39c0-56.47,38.75-95.31,95.07-95.33Q223.5,103.09,285.31,103.1Zm-1.25,419.81q61.81,0,123.62-.05c6.22,0,12.6,0,18.64-1.22,36.83-7.59,60-36.38,60-74.93q.23-125.33,0-250.66a79.87,79.87,0,0,0-1.2-16.09c-7.66-36.85-36.37-60-74.95-60q-125.33-.23-250.66,0a79.9,79.9,0,0,0-16.09,1.2c-36.84,7.66-60,36.37-60,74.95q-.23,125.33,0,250.66a80.21,80.21,0,0,0,1.2,16.09c7.49,36.19,36,59.75,73.24,60C199.94,523.13,242,522.9,284.06,522.91Z"/></svg>