<svg id="Calque_1" data-name="Calque 1" xmlns="http://www.w3.org/2000/svg" viewBox="0 0 566.93 566.93"><defs><style>.cls-1{fill:#a36958;}</style></defs><title>Plan de travail 15Icone</title><path class="cls-1" d="M383.69,349.31c25.94,0,45.07,18.94,45.12,44.61,0,25.07-19.89,45.63-44.65,46.06-24.4.42-46.58-21.38-46-46.05C338.79,364.61,364,346.84,383.69,349.31Zm-6,46.56c-3.11-2.29-5.36-5.18-7.85-5.41-2.23-.21-4.73,2.52-7.11,4,3.42,4.22,6.32,9.09,10.48,12.36,1.81,1.42,6.94.59,9.3-1a135,135,0,0,0,18.22-15.19c2-2,2-5.91,3-9-3.1.23-6.87-.59-9.15.9C388.79,386.21,383.7,391,377.7,395.87Z"/><path class="cls-1" d="M299.14,294l5.59,6.75c-2.13,1.71-4,4.21-6.45,5-5.93,1.88-12.18,2.7-18.17,4.43-6.52,1.88-9-1.05-7.84-6.82a124.27,124.27,0,0,1,6.13-20.84c2.63-6.65,7-5.75,11.5,1.13,21.33-20.75,43-41.54,64.15-62.83,2.41-2.43,3.52-8.1,2.59-11.57-4.59-17.23-.44-30.56,14.29-41.24,8-5.78,14.49-13.51,21.81-20.21,5.17-4.73,8.79-3.59,10.42,3.31a5.22,5.22,0,0,1,.13,1c.69,17.05,8.49,26.26,26.59,27,8.35.36,9.22,5.78,2.8,12-8.32,8-17.7,15.16-25.06,24-9.11,10.94-20.08,13-32.7,10.13-6.34-1.42-10.37.62-14.79,5-21.09,20.84-42.53,41.33-63.84,61.94Zm120-104-.75-3.49c-4.92,0-11.5-2-14.44.37-9.47,7.76-17.61,17.16-27.2,26.88C399.93,218.26,405.09,197,419.14,190Z"/><path class="cls-1" d="M329.56,231.74l-7,6.89c-21.32-11.66-42.74-14.13-65-4.82-29.19,12.19-46,42.93-41.14,75.91,4.38,29.95,30.94,54.44,62.22,57.38s61.8-16.62,71.8-46.42c5.92-17.64,5.63-35.22-2.67-52-3.33-6.73-1.58-10.4,4.11-13.68,22.47,30.59,15.85,77.21-14.62,103.59-31.85,27.57-78.08,25.77-108.47-4.21-29.83-29.43-32.27-76.2-5.61-107.84C249.94,214.7,296.28,207.74,329.56,231.74Z"/><path class="cls-1" d="M299.55,263.37c-4.48,1.38-8.94,3.87-13.44,3.93-12.18.14-25.57,9.38-29.29,21.32A29.91,29.91,0,0,0,269.91,323c11.41,6.78,26.2,5.4,35.33-4.35,5.9-6.3,12.47-12.61,9.66-23.37-.73-2.81,3.87-7,6.72-11.75,6.78,19.92.12,38.54-15.68,48.36a40.19,40.19,0,0,1-55-55.6c10-15.88,29-22.24,47.54-15.92Z"/><path class="cls-1" d="M157.11,281.35h-9.25c3.38-58.4,56.65-115.63,120-121.28l.68,9.31C206.39,182.07,169.47,219.15,157.11,281.35Z"/><path class="cls-1" d="M268.16,425.43v9.22c-42-.33-110.72-40.17-121-120h10.49c4.39,28.47,16.23,53.25,36.68,73.81C214.54,408.76,239,420.51,268.16,425.43Z"/><path class="cls-1" d="M152.28,292.28c9.54,0,19.1-.32,28.61.21,2.58.15,5,2.89,7.51,4.44-2.32,2.24-4.6,6.37-7,6.43q-30.08.79-60.19,0c-2.42-.06-4.74-4.1-7.1-6.3,2.52-1.61,5-4.46,7.56-4.6C131.87,292,142.08,292.27,152.28,292.28Z"/><path class="cls-1" d="M418.63,292.27c9.87,0,19.76-.32,29.59.24,2.56.15,5,3.07,7.43,4.71-2.41,2.16-4.78,6.12-7.24,6.18q-29.59.77-59.2,0c-2.65-.06-5.22-3.67-7.82-5.63,2.87-1.85,5.65-5.07,8.64-5.28C399.51,291.82,409.08,292.25,418.63,292.27Z"/><path class="cls-1" d="M279.94,163.78c0-9.58-.35-19.17.22-28.72.17-2.8,2.92-5.44,4.49-8.15,1.73,2.55,4.91,5.06,5,7.64q.63,29.21,0,58.44c-.06,2.64-3.25,5.21-5,7.81-1.56-2.76-4.3-5.46-4.47-8.3C279.59,183,279.94,173.36,279.94,163.78Z"/><path class="cls-1" d="M289.82,432.15c0,9.9.33,19.82-.22,29.69-.13,2.41-3.14,4.66-4.82,7-1.61-2.4-4.57-4.77-4.61-7.2q-.56-30.19,0-60.4c0-2.1,2.84-4.16,4.35-6.24,1.77,2.16,4.95,4.24,5.07,6.48C290.13,411.67,289.82,421.92,289.82,432.15Z"/><path class="cls-1" d="M424.75,281.57H413.57l-14.29-45.22,8.61-6.57Z"/><path class="cls-1" d="M301.66,168.87V158.26l47,14-4.1,10Z"/><path class="cls-1" d="M301.68,436.9V426l30.74-8.35L338,427Z"/><path class="cls-1" d="M412.46,314.23h11l-7.87,31.46c-11.1-.81-9.68-6.48-7.54-13.07C409.89,327,410.84,321.19,412.46,314.23Z"/></svg>