<svg id="Calque_1" data-name="Calque 1" xmlns="http://www.w3.org/2000/svg" viewBox="0 0 566.93 566.93"><defs><style>.cls-1{fill:#a36958;}</style></defs><title>Plan de travail 26Icone</title><path class="cls-1" d="M328.17,381q-63,0-126,0c-20.7,0-34-12.86-34-33.44q-.19-94.5,0-189c0-20.17,13-33.6,33.17-33.65q126.74-.3,253.49,0c20,.06,33.06,14,33.07,33.91q.05,94.12,0,188.24c0,20.33-13.48,33.88-33.72,33.9Q391.17,381,328.17,381ZM303,297.56c20.8-24.91,40.67-48.63,60.45-72.44,12.4-14.92,27.8-15.41,40.69-.74,14,16,27.69,32.21,41.53,48.32,8.18,9.53,16.4,19,26.08,30.28,0-4.79,0-7.2,0-9.6q0-66,0-132c0-15.42-5.14-20.43-20.81-20.43H205c-15.63,0-21.21,5.52-21.22,21.1q0,83.61,0,167.22c0,2.14.18,4.27.33,7.75,2.7-2.48,4.52-4,6.21-5.71q26.8-26.76,53.56-53.55c13.64-13.63,26.5-13.59,40.26.21C290.25,284.17,296.23,290.55,303,297.56ZM186.77,357.45c4.5,7.27,10.95,7.38,17.6,7.37q119.56-.07,239.11,0c26.42,0,28.4-1.86,28.09-28.55,0-4.17-.86-9.33-3.37-12.32-25.06-29.83-50.51-59.34-76-88.84-6.47-7.5-10.25-7.19-16.77.63q-31.43,37.69-62.9,75.34c-6.58,7.84-10,7.88-17.16.81-8.17-8.09-16.33-16.18-24.38-24.38-4.43-4.51-8.9-5.37-13.61-.67Q222.16,322,186.77,357.45Z"/><path class="cls-1" d="M379.54,476.94c-10.12-2.64-23.36-6-36.56-9.56q-105.71-28.26-211.41-56.57c-21.93-5.86-31.6-22-25.82-43.59q14.58-54.48,29.42-108.88c2.28-8.43,5.78-11.47,11.31-9.41,7.28,2.71,5.43,8.31,4,13.79Q135.93,316.84,121.52,371c-3.63,13.61.14,20.45,13.57,24.06q120.82,32.48,241.68,64.81c11.69,3.13,19.35-1.45,22.55-13.24,3.65-13.45,7.2-26.94,10.78-40.41,1.46-5.5,3.81-10.37,10.66-8.64,7,1.78,6.36,7.28,4.91,12.7-3.79,14.19-7.48,28.41-11.45,42.56C410.07,467.61,397.6,477.06,379.54,476.94Z"/><path class="cls-1" d="M186.77,357.45q35.5-35.51,70.65-70.63c4.71-4.7,9.18-3.84,13.61.67,8.05,8.2,16.21,16.29,24.38,24.38,7.14,7.07,10.58,7,17.16-.81q31.56-37.58,62.9-75.34c6.52-7.82,10.3-8.13,16.77-.63,25.46,29.5,50.9,59,76,88.84,2.51,3,3.32,8.15,3.37,12.32.31,26.69-1.67,28.55-28.09,28.55q-119.56,0-239.11,0C197.72,364.83,191.28,364.73,186.77,357.45Z"/><path class="cls-1" d="M279.67,205a31.75,31.75,0,1,1-31.59-32.09A31.68,31.68,0,0,1,279.67,205ZM248,220.73a16,16,0,0,0,16-15.51,16.09,16.09,0,0,0-32.18-.55C231.6,213.38,239.06,220.77,248,220.73Z"/></svg>