<svg id="Calque_1" data-name="Calque 1" xmlns="http://www.w3.org/2000/svg" viewBox="0 0 566.93 566.93"><defs><style>.cls-1{fill:#a36958;}.cls-2{fill:#2e3192;}.cls-3{fill:#fff;}</style></defs><title>Plan de travail 20Icone</title><path class="cls-1" d="M457.84,316.63a11.32,11.32,0,0,1-3.37-7.14c-.2-36.65-.2-73.29-.2-109.94v-23c33-7.28,45-33.87,41.81-56.76-3-21.83-23.15-40.22-45.31-41.34-12.37-.6-23.48,2.58-33.27,10.12-12.57,9.66-18.52,22.89-19.58,38.9H61.48V408.78H271.9a41.38,41.38,0,0,1,.79,4.3c1.46,16.74,6.88,32.15,15.48,46.57,23.35,39.42,71,61.05,116.29,52.59,46.24-8.67,83.61-46.17,90.49-91.81C501.17,379.34,488.47,344.75,457.84,316.63Zm-10.19-224c19.58,0,34.79,15.55,34.79,35.46-.07,18.85-16.34,34.93-35.26,34.79s-35.26-16.67-35.06-35.26A35.25,35.25,0,0,1,447.66,92.59ZM259.46,394.69h-184V141.41h6.15q156.87,0,313.74-.07c3.51,0,5.42.79,6.61,4.43,1.26,3.84,3.64,7.34,6,11.91l-30.82,30.23c-1.65,1.65-3.37,3.24-5,5-3.84,4.43-7.67,8.4-14.36,5a5.08,5.08,0,0,0-4.17.07c-6,3.17-9.52-.26-13-4.43-1.52-1.72-3.64-3-4.83-5-1.06-1.65-1.92-4-1.46-5.82,2-8.86-1-17.86-8.07-23a20.66,20.66,0,0,0-23.28-.93c-7.67,4.63-11.71,13.16-9.53,22.23,1.06,4.23-.13,6.55-2.91,9.26-9.13,8.86-18.12,17.93-27.06,27-2.38,2.38-4.43,3.44-8,2.51a20.26,20.26,0,0,0-23.35,10.12,21.33,21.33,0,0,0,4,25.27c7,6.68,16.74,7.81,25.33,2.84,8-4.56,11.64-14.09,9.53-23.68a7.36,7.36,0,0,1,1.46-6q14.59-15.08,29.7-29.7c1.32-1.26,4-1.52,6.09-1.59,3-.13,6.35,1.12,9,.2,5.09-1.92,8.14.07,11,3.77a20.59,20.59,0,0,0,2.71,2.65c4.3,3.24,5.89,6.81,4.63,12.77-1.92,8.93,2.65,17.07,10.65,21s15.81,3.64,22.76-2.05c7.14-5.82,9.86-13.43,7.34-22.62-.4-1.52.53-3.37,1-5,.2-.66,1-1.06,1.46-1.59,13-13,25.86-25.93,38.5-38.56,7.61,3.17,14.82,6.22,22.62,9.53V303.87c-23.28-12.63-47.69-17.46-73.56-13.23S318.73,307,300.14,327.08V296.59h-42v84.07h15.21a5.76,5.76,0,0,1,.26,1.72C272,394.75,272,394.69,259.46,394.69ZM363.18,219.13c-.46,4.1-2.91,6.42-7.47,6.55-4-.33-6.35-2.58-6.35-6.88s2.65-6.61,6.68-7C359.61,211.46,363.52,215.49,363.18,219.13ZM321,176.66c-.26,4.17-2.58,6.55-6.81,6.88-4.17-.26-6.81-2.18-6.95-6.61s2.32-6.68,6.35-7.28C317.15,169.19,321.18,173,321,176.66Zm-63.3,63.17c.4,3.64-3.51,7.54-7.14,7.14-4.1-.4-6.28-3-6.81-7.08.53-4.1,2.71-6.68,6.95-6.75S257.28,235.73,257.68,239.83Zm20,125.42c-.53,1.06-3.31,1.06-5.62,1.79V310.68h13.76c0,12.11.86,24.08-.33,35.92C284.8,353,280.7,359.17,277.66,365.25Zm191.56-12.7a20.52,20.52,0,0,1,1.26,2.38c11.58,21,14.75,42.6,10.19,64.76-.13.86-.33,1.72-.53,2.58a116.61,116.61,0,0,1-6.75,20.37c-.2.6-.46,1.12-.73,1.72h-.07a93.82,93.82,0,0,1-7,12.3,3.67,3.67,0,0,1-.46.6,110.9,110.9,0,0,1-21.83,22.89,92.6,92.6,0,0,1-8.33,5.69c-1.39.86-2.71,1.65-4.1,2.38s-2.51,1.39-3.77,2a2.44,2.44,0,0,0-.73.33c-1.32.66-2.71,1.26-4.1,1.79-1.12.53-2.25.93-3.44,1.39s-2.51.93-3.84,1.32a96.21,96.21,0,0,1-31,5,98.33,98.33,0,0,1,0-196.66,69.8,69.8,0,0,1,7.47.33v-.2c1.92.2,3.84.46,5.69.79a2.25,2.25,0,0,1,.66.07A120.14,120.14,0,0,1,410,306.91c1.52.4,3,.86,4.5,1.32a27.71,27.71,0,0,1,3.31,1.12c21.17,7.34,38.1,21,50.34,41.41C468.49,351.36,468.89,352,469.22,352.55Z"/><path class="cls-1" d="M243.42,380.37H202.1V268.21h41.32Zm-27.38-98v83.85h13.43V282.32Z"/><path class="cls-1" d="M89.62,310.24c13.21,0,26.08-.06,38.95.12,1,0,2.8,1.79,2.81,2.76.16,22.23.12,44.46.12,67.11H89.62Zm14.19,56.27c3.95,0,7.35.18,10.71-.11,1-.09,2.74-1.47,2.75-2.27.17-13,.12-26.06.12-39.33h-14c0,13,0,25.49,0,38C103.42,363.85,103.63,364.89,103.81,366.51Z"/><path class="cls-1" d="M145.84,324.65h41.43v55.59H145.84Zm27.46,41.6V338.84H159.89v27.41Z"/><path class="cls-1" d="M215.61,155.83v13.25H117.85V155.83Z"/><path class="cls-1" d="M117.67,197.22V183.87h97.77v13.35Z"/><path class="cls-1" d="M215.47,212v13.41H117.8V212Z"/><path class="cls-1" d="M215.58,240.11v13.33H117.87V240.11Z"/><path class="cls-1" d="M103.18,155.77v13.29H89.63V155.77Z"/><path class="cls-1" d="M89.7,183.73h13.22V197.3H89.7Z"/><path class="cls-1" d="M103,212.08v13.23H89.61V212.08Z"/><path class="cls-1" d="M102.91,253.61H89.65v-13c.48-.37.62-.58.76-.58C105.28,239.63,103.86,237.47,102.91,253.61Z"/><path class="cls-2" d="M397.78,304.4A82.77,82.77,0,0,1,410,306.91,120.14,120.14,0,0,0,397.78,304.4Z"/><path class="cls-2" d="M465.12,457.26a98.25,98.25,0,0,1-21.83,22.89A110.9,110.9,0,0,0,465.12,457.26Z"/><path class="cls-2" d="M473.39,442.64a116.61,116.61,0,0,0,6.75-20.37A92.09,92.09,0,0,1,473.39,442.64Z"/><path class="cls-1" d="M383.92,484c16.77-15.92,37.73-48.64,44.48-69.38,3.79-11.66,5.75-23.5,3.1-35.76-7.31-33.86-48.09-49.19-75.8-28.49-17.31,12.93-23.76,32.92-18.05,56C345.17,436.78,363.45,460.78,383.92,484Z"/><path class="cls-3" d="M384.09,413c-11.16,0-21.28-10-21.53-21.36s10.09-21.75,21.55-21.91c11.27-.16,21.8,10.27,21.83,21.64S395.5,413,384.09,413Z"/></svg>