<svg id="Calque_1" data-name="Calque 1" xmlns="http://www.w3.org/2000/svg" viewBox="0 0 566.93 566.93"><defs><style>.cls-1{fill:#fff;}</style></defs><title>Plan de travail 4Icones réseaux sociaux</title><path class="cls-1" d="M291.23,510.65q-90.87,0-181.73,0c-29.53,0-49.41-19.72-49.42-49.05q0-182.64,0-365.27c0-28.81,20-48.73,48.82-48.74q182.64,0,365.27,0c28.93,0,49,19.86,49,48.6q0,183.09,0,366.18c0,28.2-20.13,48.26-48.36,48.28Q383,510.7,291.23,510.65ZM315,441.34c0-4.64,0-7.91,0-11.18q0-53.37,0-106.73c0-4.2-.14-8.55.82-12.58,4.08-17.14,20.21-28.23,37.88-26.46,16.48,1.65,30.09,16.49,30.21,33.9.25,37.39.11,74.77.13,112.16,0,3.23,0,6.47,0,10.82,22.56,0,44.18.14,65.78-.33,1.4,0,3.82-4.7,3.87-7.26.36-16.27.32-32.56.16-48.84-.29-28.93,1.29-58.06-1.67-86.72-3.43-33.18-24-55.28-55.44-65.91-30.5-10.32-56.06-.42-77.54,22.25-1,1.09-2.21,2.05-4.55,4.21V232.62c-20.51,0-40.33.34-60.14-.17-7.71-.2-9.55,2.42-9.52,9.77.26,63,.15,126,.15,189,0,1.51-.54,3.37.14,4.45,1.33,2.11,3.33,5.36,5.1,5.39C271.41,441.48,292.47,441.34,315,441.34ZM198.66,232.62c-20,0-39.5.42-59-.19-8.41-.26-10.58,2.34-10.53,10.61.34,60.55.18,121.09.18,181.64,0,16.7,0,16.7,16.71,16.7h52.62ZM163.87,110.38c-23.2.17-41,18.09-41,41.3s18.83,42.17,41.76,41.74A42.13,42.13,0,0,0,206,151.82,41.39,41.39,0,0,0,163.87,110.38Z"/></svg>