<svg id="Calque_1" data-name="Calque 1" xmlns="http://www.w3.org/2000/svg" viewBox="0 0 566.93 566.93"><defs><style>.cls-1{fill:#fff;}</style></defs><title>Plan de travail 2Icones réseaux sociaux</title><path class="cls-1" d="M90.4,296.72c0-38.06-.54-76.14.15-114.19.76-42,26.22-74.33,66-84.44a134.69,134.69,0,0,1,32.22-4Q292.45,93.6,396.16,94c28.48.12,54.76,6.59,75.34,28.53,17.37,18.53,24,41.06,24.14,65.38.51,72.76.67,145.53,0,218.29-.33,35-13.89,63.92-45.84,81.78-15.55,8.69-32.66,11.46-50.14,11.5q-107.2.25-214.41,0c-31.28-.13-58.44-10.06-77.73-36.29-11.77-16-16.91-34.28-17.07-53.82-.32-37.54-.09-75.09-.09-112.64Zm270.44,17.36a39.43,39.43,0,0,1,4.37,2.32,47.49,47.49,0,0,1,18.11,50.95c-7,26.68-26.09,41.55-51,49.51-18.72,6-38.12,6.25-57.62,3.55-35.75-4.95-61.94-23-75.18-56.87-15.9-40.69-15.8-82.4-3.51-124,8-27.12,24.23-47.84,50.92-59,23.1-9.68,47.21-11.07,71.62-7,36.34,6.07,61.82,26,75.22,60.68,1.65,4.28,3.23,8.6,5,13.23L423,240.88a14,14,0,0,0,0-3.47c-8.88-29.36-24.22-54.24-50.29-71.44-28.06-18.52-59.48-23.23-92.14-20.6-50.91,4.09-88.08,28.5-106.6,77.09-16.85,44.2-17.19,89.6-4.71,134.9,9.38,34.08,28.5,61.18,60.91,77.51,25.09,12.64,52,14.91,79.38,13.23,25.14-1.54,47.91-9.43,67.89-25.33,48.5-38.61,44.82-111.23-11.55-137.3-2.4-1.11-4.41-5.42-4.69-8.42-3.34-35.84-24.06-57.91-59.54-61.16C276.29,213.57,255,222,239.22,244l21.47,14.8c14.42-17.36,32.56-19.82,52.24-13.18,13.39,4.52,18.73,15.82,20.72,28.59-12.85,0-25.19-.28-37.51.07-13.95.4-27.07,4.08-38.76,11.94-28,18.8-28.92,58.86-2,78.59,35.75,26.17,87.36,9.56,100.68-32.47C357.95,326.53,359.18,320.53,360.84,314.08Z"/><path class="cls-1" d="M333.88,303.3c2.86,33-23.25,54.22-53.71,44.29C269,344,263,337,262.58,327.48c-.44-10.28,4.66-17.74,15.84-22.34,13.29-5.47,27.26-5.21,41.22-4C324.47,301.52,329.24,302.57,333.88,303.3Z"/></svg>