<svg id="Calque_1" data-name="Calque 1" xmlns="http://www.w3.org/2000/svg" viewBox="0 0 566.93 566.93"><defs><style>.cls-1{fill:#a36958;}.cls-2{fill:#2e3192;}</style></defs><title>Plan de travail 21Icone</title><path class="cls-1" d="M371.43,385.86c5.18.42,10.07.47,14.84,1.28,10.89,1.85,20.24,6.49,26.18,16.34,8.68,14.38,4.84,35.08-8.33,45.62-10.47,8.38-22.58,11-35.64,10.17a62.39,62.39,0,0,1-22.76-5.56c-2-.94-2.66-2-2-4.2,1.23-4.08,2.22-8.23,3.34-12.35.84-3.06,1.69-3.38,4.71-2.09,7.82,3.33,15.89,5.41,24.47,4.23,5.69-.78,10.6-3,14-8,5-7.22,2.31-18.07-5.46-22.14-6.25-3.28-13-3.89-19.86-3.77-4.12.08-8.23.41-12.33.76-2.63.22-3.69-.67-3.36-3.29,1.2-9.59,2.45-19.17,3.68-28.75.86-6.68,1.76-13.36,2.56-20.06.49-4.13.7-4.41,4.75-4.41h50c3.28,0,3.74.47,3.74,3.77q0,6.64,0,13.28c0,2.87-.66,3.53-3.61,3.53-11.48,0-23,0-34.43,0-1.65,0-2.34.37-2.53,2.17C372.86,376.92,372.08,381.42,371.43,385.86Z"/><path class="cls-1" d="M454.41,313.13a11.24,11.24,0,0,1-3.35-7.1c-.2-36.41-.2-72.81-.2-109.22V174c32.79-7.23,44.69-33.65,41.53-56.39-3-21.69-23-40-45-41.07C435.09,76,424,79.11,414.32,86.6c-12.49,9.59-18.4,22.74-19.45,38.64H60.63V404.67h209a41.11,41.11,0,0,1,.79,4.27c1.45,16.63,6.83,31.94,15.38,46.26,23.2,39.17,70.51,60.66,115.53,52.24,45.94-8.61,83.07-45.87,89.9-91.21C497.45,375.43,484.83,341.06,454.41,313.13ZM444.29,90.55c19.45,0,34.57,15.44,34.57,35.22-.07,18.73-16.23,34.7-35,34.57s-35-16.56-34.83-35A35,35,0,0,1,444.29,90.55Zm-187,300.13H74.56V139h6.11q155.85,0,311.7-.07c3.48,0,5.39.79,6.57,4.4,1.25,3.81,3.61,7.29,5.91,11.83l-30.62,30c-1.64,1.64-3.35,3.22-4.93,4.93-3.81,4.4-7.62,8.35-14.26,4.93a5.05,5.05,0,0,0-4.14.07c-6,3.15-9.46-.26-12.88-4.4-1.51-1.71-3.61-3-4.8-5-1.05-1.64-1.91-4-1.45-5.78,2-8.81-1-17.74-8-22.8a20.52,20.52,0,0,0-23.13-.92c-7.62,4.6-11.63,13.08-9.46,22.08,1.05,4.21-.13,6.51-2.89,9.2-9.07,8.81-18,17.81-26.88,26.81-2.36,2.37-4.4,3.42-8,2.5a20.13,20.13,0,0,0-23.2,10.05,21.2,21.2,0,0,0,3.94,25.1c7,6.64,16.63,7.75,25.17,2.83,8-4.53,11.57-14,9.46-23.53a7.32,7.32,0,0,1,1.45-5.91q14.49-15,29.51-29.51c1.31-1.25,3.94-1.51,6-1.58,3-.13,6.31,1.12,8.94.2,5.06-1.91,8.08.07,10.91,3.75a20.45,20.45,0,0,0,2.69,2.63c4.27,3.22,5.85,6.77,4.6,12.68-1.91,8.87,2.63,17,10.58,20.9s15.71,3.61,22.61-2c7.1-5.78,9.79-13.34,7.29-22.48-.39-1.51.53-3.35,1-5,.2-.66,1-1.05,1.45-1.58,12.88-12.88,25.69-25.76,38.25-38.31,7.56,3.15,14.72,6.18,22.48,9.46V300.44c-23.13-12.55-47.38-17.35-73.08-13.14s-47.32,16.3-65.78,36.21v-30.3H256v83.53h15.11a5.72,5.72,0,0,1,.26,1.71C269.81,390.74,269.81,390.67,257.32,390.67Zm103-174.41c-.46,4.07-2.89,6.37-7.43,6.51-3.94-.33-6.31-2.56-6.31-6.83s2.63-6.57,6.64-7C356.82,208.64,360.7,212.65,360.37,216.26Zm-41.93-42.19c-.26,4.14-2.56,6.51-6.77,6.83-4.14-.26-6.77-2.17-6.9-6.57s2.3-6.64,6.31-7.23C314.63,166.65,318.64,170.46,318.44,174.07Zm-62.89,62.76c.39,3.61-3.48,7.49-7.1,7.1-4.07-.39-6.24-3-6.77-7,.53-4.07,2.7-6.64,6.9-6.7S255.15,232.76,255.55,236.83Zm19.85,124.6c-.53,1.05-3.29,1.05-5.59,1.77v-56h13.67c0,12,.85,23.92-.33,35.68C282.49,349.27,278.42,355.38,275.4,361.43Zm190.32-12.62a20.39,20.39,0,0,1,1.25,2.37c11.5,20.9,14.65,42.32,10.12,64.34-.13.85-.33,1.71-.53,2.56a115.85,115.85,0,0,1-6.7,20.24c-.2.59-.46,1.12-.72,1.71h-.07a93.21,93.21,0,0,1-7,12.22,3.65,3.65,0,0,1-.46.59A110.18,110.18,0,0,1,440,475.58a92,92,0,0,1-8.28,5.65c-1.38.85-2.7,1.64-4.08,2.37s-2.5,1.38-3.75,2a2.43,2.43,0,0,0-.72.33c-1.31.66-2.69,1.25-4.07,1.77-1.12.53-2.23.92-3.42,1.38s-2.5.92-3.81,1.31a95.58,95.58,0,0,1-30.82,5A97.69,97.69,0,0,1,381,300a69.35,69.35,0,0,1,7.43.33v-.2c1.91.2,3.81.46,5.65.79a2.23,2.23,0,0,1,.66.07,119.36,119.36,0,0,1,12.09,2.5c1.51.39,3,.85,4.47,1.31a27.53,27.53,0,0,1,3.29,1.12c21,7.29,37.85,20.83,50,41.14C465,347.63,465.38,348.22,465.71,348.81Z"/><path class="cls-1" d="M241.38,376.45H200.33V265h41.05ZM214.18,279v83.3h13.34V279Z"/><path class="cls-1" d="M88.58,306.78c13.12,0,25.91-.06,38.7.12a4,4,0,0,1,2.79,2.75c.16,22.08.12,44.17.12,66.67H88.58Zm14.1,55.9c3.92,0,7.3.18,10.64-.11,1-.09,2.72-1.46,2.73-2.26.17-12.94.12-25.89.12-39.08h-13.9c0,12.88,0,25.33,0,37.77C102.3,360,102.51,361.07,102.68,362.68Z"/><path class="cls-1" d="M144.44,321.09h41.16v55.23H144.44Zm27.28,41.33V335.2H158.39v27.23Z"/><path class="cls-1" d="M213.76,153.38v13.17H116.63V153.38Z"/><path class="cls-1" d="M116.46,194.5V181.23h97.13V194.5Z"/><path class="cls-1" d="M213.62,209.14v13.32h-97V209.14Z"/><path class="cls-1" d="M213.72,237.1v13.24H116.65V237.1Z"/><path class="cls-1" d="M102.06,153.31v13.2H88.59v-13.2Z"/><path class="cls-1" d="M88.67,181.09H101.8v13.48H88.67Z"/><path class="cls-1" d="M101.89,209.25V222.4H88.57V209.25Z"/><path class="cls-1" d="M101.79,250.51H88.62V237.61c.48-.37.62-.57.76-.58C104.14,236.62,102.74,234.49,101.79,250.51Z"/><path class="cls-2" d="M394.74,301a82.23,82.23,0,0,1,12.09,2.5A119.36,119.36,0,0,0,394.74,301Z"/><path class="cls-2" d="M461.64,452.84A97.6,97.6,0,0,1,440,475.58,110.18,110.18,0,0,0,461.64,452.84Z"/><path class="cls-2" d="M469.85,438.32a115.85,115.85,0,0,0,6.7-20.24A91.49,91.49,0,0,1,469.85,438.32Z"/></svg>