<svg id="Calque_1" data-name="Calque 1" xmlns="http://www.w3.org/2000/svg" viewBox="0 0 566.93 566.93"><defs><style>.cls-1{fill:#fff;}</style></defs><title>Plan de travail 1Icones réseaux sociaux</title><path class="cls-1" d="M252.56,298.2H195.95V364h56.17V548.53c-97.44-11.86-203.64-101.44-205.79-236C44.16,177.21,152.82,68.33,284.48,66.07c135.24-2.32,244.2,105.83,246.86,237,2.81,138.82-105,235.75-212.6,245.84V362.54c15.94,0,31.45-.35,46.94.15,7.32.24,10.35-1.32,11-9.51C378,336.72,381,320.41,383.27,304c.3-2.18.27-4.41.43-7.45H320.93c0-17.55-.86-34.34.28-51,.86-12.45,10.63-19.19,25.24-19.85,6.77-.3,13.56-.1,20.34-.11,6.5,0,13,0,19.92,0a51.41,51.41,0,0,0,.83-6.31c0-16.07-.16-32.15,0-48.22,0-4.59-1-7-6.17-6.94-18.06,0-36.19-1.18-54.18-.13-39.67,2.3-67.14,27-72.74,66.41-2.52,17.75-1.4,36-1.88,54.06C252.47,288.69,252.56,292.92,252.56,298.2Z"/></svg>