<svg id="Calque_1" data-name="Calque 1" xmlns="http://www.w3.org/2000/svg" viewBox="0 0 566.93 566.93"><defs><style>.cls-1{fill:#fff;}</style></defs><title>Plan de travail 3Icones réseaux sociaux</title><path class="cls-1" d="M529.74,236.29v85.17c-2.68,10.45-5,21-8.11,31.34A252.45,252.45,0,0,1,298.32,531.28c-46.63,3.49-91.09-5.62-133-26.94C54.24,447.8.52,318,39.61,200.12,79.61,79.48,202.27,6.18,326.74,30.88c93.77,18.61,157.4,74.78,191.43,164C523.25,208.25,525.94,222.48,529.74,236.29ZM118.17,278.14h.05c0,26.24-.31,52.49.07,78.73.66,45.15,39,83.5,84.12,83.83q77.31.57,154.63-.1a80.31,80.31,0,0,0,24.25-4.22c37.58-12.45,60.15-43.67,60.33-83.37.23-49.41,0-98.83.07-148.24.11-47.64-37.12-86.73-85-87.41q-76.59-1.09-153.21,0C155.25,118,118,157,118.16,205.08,118.26,229.43,118.17,253.79,118.17,278.14Z"/><path class="cls-1" d="M279.62,415.79c-19.86,0-39.73-.37-59.59.08a74.32,74.32,0,0,1-76.53-76.29c.91-41.6.07-83.24.22-124.86.14-39.13,31.71-71.64,70.86-72.12q65.26-.81,130.53,0c39.3.51,70.82,32.87,71,72q.25,63.85-.06,127.7c-.23,40.53-30.57,71.94-71.16,73.26-21.73.71-43.5.13-65.26.13Zm89.71-136.45c.47-47.93-39.1-87.79-87.68-88.33-49.67-.55-90.68,38-91.14,85.58-.48,49.7,38.21,89.89,87,90.33C328.95,367.39,368.84,329.36,369.33,279.34Zm28.35-84.68a25.09,25.09,0,0,0-50.17.14c-.07,13.7,11.59,25.48,25.16,25.44S397.7,208.55,397.68,194.66Z"/><path class="cls-1" d="M281,216.37c35.25.13,62.87,28.21,62.83,63.87,0,33.76-28.88,61.59-63.86,61.61-35.23,0-64-28-63.88-62.28C216.2,243.51,244.22,216.23,281,216.37Z"/></svg>