<svg width="52" height="52" viewBox="0 0 52 52" fill="none" xmlns="http://www.w3.org/2000/svg">
<path d="M32.8752 0.31288C41.0274 -0.122444 49.7825 6.1262 51.1453 15.8683C52.6568 26.6675 45.6132 34.8738 36.5849 36.7232C30.8392 37.8994 25.6559 36.4772 21.0972 32.8215C20.5185 32.3565 20.1427 32.2808 19.683 32.8729C19.5404 33.0381 19.3869 33.1934 19.2234 33.338C17.7903 34.7683 17.7606 34.7927 19.1044 36.3122C19.6452 36.9125 19.1558 37.1234 18.8476 37.4397C16.1437 40.1328 13.4398 42.8232 10.7359 45.5108C9.11361 47.1331 7.45345 48.7014 5.8825 50.3778C5.07134 51.2376 4.26017 51.216 3.34356 50.7293C2.05005 50.0393 1.01854 48.9442 0.407158 47.6117C0.219838 47.2758 0.155142 46.8852 0.224204 46.5068C0.293266 46.1285 0.491759 45.7859 0.785673 45.5378C5.1335 41.2576 9.48946 36.9855 13.7913 32.6593C14.4889 31.959 14.8539 31.9833 15.4812 32.6836C16.4546 33.7652 16.5006 33.7273 17.5389 32.7026C19.1261 31.137 19.1261 31.137 17.8093 29.3417C10.0275 18.6154 16.2681 2.9816 29.2845 0.550822C30.4958 0.315585 31.6828 0.377773 32.8752 0.31288ZM18.104 18.637C18.104 26.7676 24.8204 33.4759 32.9753 33.4651C41.0328 33.4651 47.7601 26.7189 47.7601 18.6587C47.7601 10.5308 41.0437 3.83873 32.8888 3.84143C24.7853 3.84414 18.104 10.5443 18.104 18.637Z" fill="white"/>
</svg>
