<svg id="Calque_1" data-name="Calque 1" xmlns="http://www.w3.org/2000/svg" viewBox="0 0 566.93 566.93"><defs><style>.cls-1{fill:#a36958;}.cls-2{fill:none;stroke:#a36958;stroke-miterlimit:10;stroke-width:2px;}</style></defs><title>Plan de travail 22Icone</title><path class="cls-1" d="M466.44,197a2.18,2.18,0,0,0-3.42.17,35.28,35.28,0,0,0-3.17,3.51c-1.88,2.73-4,3.68-7.12,1.92-1.05-.59-1.55-1-1.57-2.18,0-2.54-.23-5.07-.34-7.61-.06-1.56-.74-2.5-2.38-2.45-2.74.08-5.49.17-8.23.35a2.16,2.16,0,0,0-2.2,2.45,29.18,29.18,0,0,0,.22,4.93c.6,3.22-.22,5.3-3.62,6.25-1.16.33-1.83.36-2.67-.47-1.76-1.72-3.62-3.35-5.44-5-1.28-1.18-2.5-1.26-3.73.11-1.74,1.94-3.51,3.86-5.29,5.77a2.18,2.18,0,0,0,.08,3.42c1.23,1.21,2.51,2.34,3.78,3.5,2.26,2.09,2.8,2.6,2.38,4.32-.15.58-.4,1.3-.72,2.26a2.14,2.14,0,0,1-2.34,1.73c-2.46,0-4.93.19-7.41.3a3.19,3.19,0,0,0-1.53.4,1.82,1.82,0,0,0-.7.76,2.56,2.56,0,0,0-.24,1.21c.06,2.75.2,5.49.36,8.23a2.06,2.06,0,0,0,1.87,2.19,3.6,3.6,0,0,0,.74,0,40.69,40.69,0,0,0,4.73-.21c3.11-.5,5.28.05,6.24,3.57.36,1.34.41,2.06-.53,3-1.73,1.77-3.35,3.63-5,5.44-.93,1-1.16,2.12-.15,3.1q3.17,3.07,6.53,6a1.87,1.87,0,0,0,2.89-.34,35.55,35.55,0,0,0,3-3.37c2-3,4.38-4,7.57-1.95a2.8,2.8,0,0,1,1.29,1.67c.24,2.58.3,5.2.37,7.81,0,1.82,1,2.59,2.74,2.51,2.54-.12,5.07-.22,7.61-.32,1.81-.06,2.59-1,2.5-2.77,0-.37,0-.74,0-1.12a21.31,21.31,0,0,0-.2-3.61c-.59-3.15.24-5.13,3.55-6h0c1.24-.34,1.94-.41,2.85.49,1.65,1.64,3.4,3.19,5.14,4.75s2.54,1.51,4.13-.17c.79-.85,1.58-1.71,2.37-2.58s1.73-2,2.65-2.87c1.34-1.33,1.11-2.52-.18-3.68a29.64,29.64,0,0,0-3.36-3c-2.79-1.86-3.6-4-1.9-7.11.53-1,.87-1.51,2-1.53,2.61,0,5.21-.21,7.81-.33a2.13,2.13,0,0,0,2.3-2.51c-.1-2.66-.22-5.35-.33-8a2.14,2.14,0,0,0-2.54-2.28l-4.73.2c-4.45.19-4.5.21-6.31-3.85a2.64,2.64,0,0,1,.32-2.28c1.64-2,3.45-3.91,5.26-5.79,1.13-1.19,1.13-2.32,0-3.4Q469.45,199.71,466.44,197Zm-.07,5.45a26,26,0,0,0,1.92,1.79c-2,2.17-3.75,4.16-5.61,6.07a3,3,0,0,0-.41,4.2,25.6,25.6,0,0,1,2.44,5.4c.56,1.62,1.4,2.34,3.15,2.19,2.73-.24,5.46-.33,8.4-.49.12,1.7.2,3.12.32,4.82-2.77.1-5.41.29-8.05.26-2.08,0-3.07.82-3.52,2.88a26.23,26.23,0,0,1-2,5.36,2.81,2.81,0,0,0,.73,3.81c2.07,1.77,4,3.67,6.11,5.58l-3.16,3.43c-1.91-1.76-3.76-3.47-5.61-5.16-2.17-2-2.38-1.92-5-.41a24.51,24.51,0,0,1-2.53,1.28,18.38,18.38,0,0,1-2.32.89c-1.77.53-2.47,1.48-2.32,3.29.12,1.49.2,3,.28,4.55.06,1.21.12,2.45.2,3.75l-4.84.06c-.08-2.62-.27-5.27-.22-7.91a3.51,3.51,0,0,0,0-.37c-.07-1.84-.95-2.69-2.88-3.09l-.65-.15a28.37,28.37,0,0,1-4.91-1.9,2.63,2.63,0,0,0-3.48.64c-1.84,2-3.7,4-5.66,6.16l-3.43-3.16c1.84-2,3.64-4.05,5.54-6a2.78,2.78,0,0,0,.48-3.83,38.22,38.22,0,0,1-2.15-4.44c-.17-.44-.35-.87-.5-1.31a2.7,2.7,0,0,0-3.05-2.09h-.14c-2.26.17-4.52.28-6.82.42l-1.49.09c-.12-1.78-.22-3.2-.33-4.91,3-.08,5.82-.2,8.63-.21,1.66,0,2.42-.82,2.85-2.36.23-.82.48-1.65.76-2.45a30.55,30.55,0,0,1,1.32-3.32,3,3,0,0,0-.77-4c-2-1.78-3.93-3.6-5.86-5.38a3.06,3.06,0,0,1,.27-.73c2.45-3.09,2.45-3.09,5.35-.42,1.26,1.16,2.55,2.3,3.78,3.49,1.07,1,2.11.93,3.36.28a54.12,54.12,0,0,1,5.93-2.72,2.68,2.68,0,0,0,2.06-3.05c-.19-2.73-.23-5.48-.34-8.55l4.61.33c.09,2.23.32,4.8.28,7.37,0,2.24.79,3.33,3.08,3.74a22.29,22.29,0,0,1,5.36,2,2.53,2.53,0,0,0,3.44-.65c1.44-1.67,3-3.19,4.43-4.89C464.45,201.41,465.3,201.25,466.38,202.5Z"/><path class="cls-1" d="M401.44,245a2.6,2.6,0,0,0-2.77,2.21,24.87,24.87,0,0,1-.87,2.38L402,245Zm-14.71,15.25a2.68,2.68,0,0,0-2.06,3.09l0,.48,3.95-4.29A20.39,20.39,0,0,1,386.73,260.25Zm12.64-41.67c-1.43-1.38-2.61-1.16-3.82.25s-2.35,2.5-3.45,3.81a2.16,2.16,0,0,1-2.64.76c-1.78-.52-2.62-1.35-2.44-3.29a38.53,38.53,0,0,0-.15-4.52,2.7,2.7,0,0,0-.82-2.13,2.84,2.84,0,0,0-2-.52c-2.47.12-4.94.24-7.41.31-1.89.07-2.77,1-2.62,2.87.19,2.32.38,4.63.52,6.45-2.94,2.5-5,1.82-6.83-.52a7.75,7.75,0,0,0-1.11-1.11c-.38-.34-.78-.66-1.14-1a2.2,2.2,0,0,0-3.56.13c-1.75,1.93-3.5,3.86-5.29,5.75-1.21,1.26-1.1,2.4.13,3.53q.57.53,1.13,1.08c.77.73,1.53,1.46,2.37,2.11a2.78,2.78,0,0,1,1,3.83,2.28,2.28,0,0,1-2.52,1.72c-1.78,0-3.56.13-5.35.2a2.15,2.15,0,0,0-2.33,2.49c.1,2.67.23,5.35.34,8a2.5,2.5,0,0,0,.62,1.7,2.41,2.41,0,0,0,1.9.59c1.78-.07,3.56-.11,5.34-.22,1.16-.08,2.13-.12,2.57,1.33.4,1.27,1.32,2.35-.16,3.61a49.55,49.55,0,0,0-3.66,3.9c-1.14,1.22-1.18,2.4.09,3.56l5.76,5.3a2.32,2.32,0,0,0,3.74-.17c1.28-1.42,2.56-2.86,3.93-4.21a2.54,2.54,0,0,1,.67-.48,1.6,1.6,0,0,1,.85-.2c2.52.3,3,.93,3.15,3.5.06,1.51.14,3,.18,4.52a3.59,3.59,0,0,0,.21,1.2,2.2,2.2,0,0,0,2.49,1.39c2.53-.11,5.07-.23,7.61-.32,1.91-.06,2.69-1.06,2.59-2.91s0-3.72-.27-5.55,1.16-1.7,2.08-2.28,1.67-.75,2.55.11c1.47,1.44,3,2.81,4.56,4.17a2,2,0,0,0,3.22-.21c1.8-2,3.62-3.95,5.43-5.92a2.14,2.14,0,0,0-.15-3.4c-1.46-1.35-3-2.62-4.34-4.09a2.67,2.67,0,0,1-.44-2.22c.32-1,.2-2.57,2.09-2.52s4-.14,6-.21a2.12,2.12,0,0,0,2.31-2.49c-.11-2.68-.2-5.35-.34-8a2.11,2.11,0,0,0-1.59-2.19,3.45,3.45,0,0,0-1-.1c-1.92.07-3.84.26-5.75.17a2.75,2.75,0,0,1-1.95-1.16c-.4-.72-1-1.48-.88-2.32a2,2,0,0,1,.7-1.12,48.53,48.53,0,0,0,3.77-4.07c1.11-1.28,1.22-2.51-.19-3.74C403.06,222.05,401.19,220.33,399.37,218.57Zm0,5.49a18.37,18.37,0,0,0,1.71,1.6c-1.42,1.54-2.68,3-4.08,4.41a3,3,0,0,0-.51,4.21,17.34,17.34,0,0,1,1,1.9c.32.71.62,1.44.89,2.18a2.59,2.59,0,0,0,2.93,2c1.82-.18,3.65-.34,5.49-.5l.85-.08c.15,2,.27,3.37.41,5.19-2.13,0-4.07,0-6,0h-.59a2.6,2.6,0,0,0-2.77,2.21,24.87,24.87,0,0,1-.87,2.38A15.29,15.29,0,0,0,397,252a4,4,0,0,0,.56,2.87,17.17,17.17,0,0,0,3.43,3.23c1.49,1.14,1.47,2.12.09,3.27-.52.42-1,.94-1.67,1.63-1.42-1.3-2.82-2.48-4.08-3.78-1.49-1.56-3-2-4.88-.67a11.75,11.75,0,0,1-1.8,1,20.39,20.39,0,0,1-1.92.71,2.68,2.68,0,0,0-2.06,3.09l0,.48c.15,1.88.28,3.77.42,5.75l-5.13.13c0-.26,0-.52,0-.76,0-1.88,0-3.68,0-5.5a2.52,2.52,0,0,0-2.19-2.75,20.45,20.45,0,0,1-2.3-.71c-.78-.29-1.56-.62-2.32-1a2.66,2.66,0,0,0-3.49.67c-1.36,1.53-2.77,3-4.4,4.8a21.08,21.08,0,0,1-2.54-2.42,1.82,1.82,0,0,1,.16-1.69,51,51,0,0,1,3.44-3.83,2.59,2.59,0,0,0,.38-3.51,29,29,0,0,1-2-4.46,2.49,2.49,0,0,0-2.75-1.92c-2.12.14-4.24.26-6.58.4,0-.1,0-.2,0-.29-.1-1.48-.18-2.82-.29-4.42,1.58-.08,3.08-.18,4.58-.25.61,0,1.22,0,1.82,0a2.69,2.69,0,0,0,2.84-2.13c.55-1.62,1.19-3.21,1.84-4.78a1.47,1.47,0,0,0,.07-.19,2.67,2.67,0,0,0-.81-3.16l-4.67-4.3,3.14-3.42c1.51,1.39,3.1,2.76,4.59,4.25a2.59,2.59,0,0,0,3.19.7,5.14,5.14,0,0,0,.49-.24,19,19,0,0,1,3.68-1.79,3.22,3.22,0,0,0,2.52-4q-.08-.51-.15-1c-.21-1.47-.38-3-.57-4.43l4.78-.16H383c0,2.11.05,4.23.05,6.36a2.61,2.61,0,0,0,2.1,2.66,50.31,50.31,0,0,1,4.8,1.76,2.52,2.52,0,0,0,3.29-.7c.95-1.09,2-2.06,2.9-3.2C397.21,222.75,398.17,222.62,399.34,224.07Zm-12.61,36.18a2.68,2.68,0,0,0-2.06,3.09l0,.48,3.95-4.29A20.39,20.39,0,0,1,386.73,260.25ZM401.44,245a2.6,2.6,0,0,0-2.77,2.21,24.87,24.87,0,0,1-.87,2.38L402,245Z"/><path class="cls-1" d="M403.11,175.87c-1,1.06-2,2.14-3,3.21l-.76-.28c-.08-1.32-.18-2.62-.24-3.93-.16-3.32-.56-3.71-3.79-3.56l-3.29.14c-3.57.15-3.77.37-3.63,4,0,1.27.06,2.55.08,3.83l-.78.22c-1.19-1.09-2.37-2.21-3.58-3.28s-2.67-1.28-3.92.17c-.58.67-1.2,1.32-1.8,2-3.54,3.85-3.54,3.84.23,7.36.64.61,1.18,1.33,1.78,2l-.28.56c-1.54.07-3.08.12-4.61.23-2.25.15-2.88.84-2.84,3.12,0,.75.06,1.51.09,2.27.23,5.44.22,5.43,5.57,5.23.77,0,1.55.05,2.32.07l.35.61c-1.17,1.27-2.33,2.55-3.51,3.81s-1.19,2.25.05,3.37l2.14,2,2.25,2.08c1.2,1.13,2.3,1,3.36-.21.92-1,1.83-2,2.8-3s1.5-.61,1.62.57.16,2.1.17,3.16c0,.24,0,.49,0,.73,0,1.88.93,2.77,2.83,2.66,1.7-.11,3.42-.13,5.14-.23a6.61,6.61,0,0,0,1-.12c1.35-.29,1.79-1.07,1.75-2.84,0-1.61-.1-3.2-.15-4.85.57,0,.83-.06.95,0,1.06.87,2.09,1.76,3.13,2.65,1.54,1.34,2.3,1.63,3.38.85a7.79,7.79,0,0,0,1.08-1c.94-1,1.86-2,2.79-3,2-2.17,2-2.93-.19-4.91l-3.15-2.9.42-.73,5.06-.23a2.22,2.22,0,0,0,2.4-2.64c-.09-1.85-.17-3.7-.23-5.56s-1-2.59-2.75-2.51c-1.3.07-2.61.15-3.9.12a1.65,1.65,0,0,1-1.13-.61c-.12-.16.17-.74.41-1,.85-1,1.71-2,2.64-2.89,1.28-1.24,1.1-2.4-.09-3.54s-2.4-2.25-3.62-3.35C405.59,173.81,405,173.84,403.11,175.87Zm4,5.1c-1,2.47-4.77,3.47-2.76,7.64s4.91,2.12,7.88,2.82c0,.62-.05,1.34-.09,2.47-1.51,0-2.88-.1-4.25-.12a2.71,2.71,0,0,0-2.72,2.07c-1.49,4-1.49,4,1.67,7,.62.6,1.78,1.12.63,2.27s-1.52-.13-2.17-.57a4.75,4.75,0,0,1-.62-.55,5.3,5.3,0,0,0-5.17-1.36,5.55,5.55,0,0,0-2.49,1.61,3.33,3.33,0,0,0-.66,2.06c0,1.37.15,2.74.27,4.44l-1.84,0h-.42a3.17,3.17,0,0,1-.19-.57c-.67-2.45.73-5.47-3.27-6.91-4.21-1.53-5,1.8-7.32,3.38L382,205.23c1-2.44,4.66-3.43,2.73-7.51s-4.81-2.32-7.64-2.78c0-.69-.09-1.4-.17-2.64l4.47.17a2.18,2.18,0,0,0,2.4-1.78,13.69,13.69,0,0,1,.79-2.12,2.9,2.9,0,0,0-.88-3.83,14.93,14.93,0,0,1-2.21-2.14,1.61,1.61,0,0,1,.16-1.49c.17-.25.94-.25,1.34-.11a2.73,2.73,0,0,1,1.07.94c1.83,2.29,3.78,2.59,6.44,1.09,1.68-.95,2.6-1.82,2.27-3.76-.2-1.15-.29-2.31-.48-3.8l2.52,0c.9,2.7-.79,6,3.5,7.51s4.91-2.1,7.3-3.39Z"/><path class="cls-1" d="M434.58,215.29a15.12,15.12,0,0,0-3.67,7.34,14.83,14.83,0,0,0,4.37,13.78,15.42,15.42,0,0,0,14.5,3.57,14.9,14.9,0,0,0,7.11-4.35,15.09,15.09,0,1,0-22.31-20.34Zm19.16,17.6a10.88,10.88,0,0,1-7.84,3.52,11.27,11.27,0,0,1-7.84-3,10.54,10.54,0,0,1-3.36-7.26,11,11,0,1,1,19,6.77Z"/><path class="cls-1" d="M372,234.79a12.91,12.91,0,0,0,.57,18,13.9,13.9,0,0,0,6.43,3.45,12.44,12.44,0,0,0,11.93-3.84A12.57,12.57,0,0,0,394,239.89a12.89,12.89,0,0,0-3.52-5.77A13.13,13.13,0,0,0,372,234.79Zm16.1,14.72a8.7,8.7,0,0,1-5.5,2.84A8.95,8.95,0,0,1,375,237.46a9.1,9.1,0,0,1,12.64-.4,8.57,8.57,0,0,1,2.7,6.84A8.91,8.91,0,0,1,388.08,249.5Z"/><path class="cls-1" d="M388.24,187.16a8.53,8.53,0,0,0,.18,12l.32.29a8.59,8.59,0,1,0-.51-12.32Zm9.59,9a4.59,4.59,0,0,1-6.32.17,4.41,4.41,0,1,1,6-6.5A4.62,4.62,0,0,1,397.83,196.18Z"/><path class="cls-1" d="M233.65,294.94c-24.4,0-48.82-.17-73.22.09-6,.07-8.28-1.66-8.06-7.87.42-10.74.12-21.49.1-32.25,0-11.62.12-23.23-.05-34.85-.14-8.53-2.91-10.78-11.27-9.85-50.44,5.67-85.76,50.23-81.24,102.52,4.2,48.71,46,85.43,96,84.35,48.38-1.06,88.69-40.22,90.8-88.24C247.27,297.05,245.37,295,233.65,294.94Zm-78.82,86.13c-38.7,2.15-74.93-29.72-79.17-69.63-4.15-39.1,22.87-76.9,61.11-83.44v50.09c0,6.68,0,13.36,0,20,.07,11.93,1.22,13.12,12.89,13.13q35.27,0,70.55,0h9.38C229,347.53,194.95,378.85,154.83,381.07Z"/><path class="cls-1" d="M244.34,271.45c-8.28-35.95-33.59-57.82-70.71-61.46-7.52-.75-11,2.13-11,9.49,0,18.85,0,37.69,0,56.55,0,6.47,3,9.45,9.63,9.3,10.43-.24,20.88-.07,31.32-.07,9.85,0,19.71.05,29.58,0C244,285.19,246.73,281.75,244.34,271.45ZM179.11,269V228.24c20.95.12,43.12,19.41,46.31,40.71Z"/><path class="cls-1" d="M484.74,334.65c0,16.27,0,32.54,0,48.82,0,5.83-1.21,10.82-8.37,10.52-6.61-.28-7.41-5.15-7.4-10.56q.1-48.38,0-96.76c0-5.76,1-10.94,8-11,7.37-.07,7.74,5.53,7.73,11.05Q484.73,310.67,484.74,334.65Z"/><path class="cls-1" d="M442.3,348.26c0,11.62.08,23.25,0,34.87-.05,5.62-1.33,10.85-8.4,10.82s-8.2-5.25-8.21-10.9q0-35.31,0-70.62c0-5.67,1.18-10.86,8.28-10.83s8.27,5.3,8.31,10.91C442.37,324.43,442.3,336.34,442.3,348.26Z"/><path class="cls-1" d="M340,347.74c0-12.19.08-24.39,0-36.58-.05-5.31,1.44-9.35,7.42-9.61,6.56-.29,8.4,4.05,8.4,9.65q0,36.58,0,73.16c0,5.63-1.93,9.93-8.44,9.62-5.94-.28-7.45-4.34-7.4-9.66C340.13,372.13,340,359.94,340,347.74Z"/><path class="cls-1" d="M313.33,361.09c0,7.52.08,15,0,22.56-.08,5.32-1.45,10.09-7.91,10.31-7,.24-8.66-4.69-8.7-10.4-.09-15.33,0-30.66,0-46,0-5.38,1.64-10.16,7.9-10.36,6.76-.21,8.64,4.63,8.68,10.45.05,7.81,0,15.62,0,23.43Z"/><path class="cls-1" d="M398.94,360.79c0,8.12.69,16.32-.34,24.31-.42,3.24-4.16,7.79-7.2,8.56-5.62,1.42-8.25-3.18-8.29-8.46-.13-16.52-.42-33.06.33-49.55.14-3,4.62-7.67,7.63-8.13,5.16-.79,8.05,3.24,7.93,8.93C398.81,344.56,398.95,352.68,398.94,360.79Z"/><path class="cls-1" d="M225.42,268.94h-46.3V228.24C200.06,228.36,222.23,247.66,225.42,268.94Z"/><rect class="cls-2" x="35.98" y="124.51" width="485.03" height="327.78"/></svg>