<svg id="Calque_1" data-name="Calque 1" xmlns="http://www.w3.org/2000/svg" viewBox="0 0 566.93 566.93"><defs><style>.cls-1{fill:#a36958;}</style></defs><title>Plan de travail 2Icone</title><path class="cls-1" d="M462.91,252.74q0,76.09,0,152.19c0,12.64-4.41,17.11-16.87,17.12-17.4,0-34.8,0-52.2,0-10.23,0-15.56-5.28-15.56-15.47q0-154.07,0-308.15c0-9.69,5.23-15.64,14.87-15.83,18.23-.35,36.48-.33,54.71,0,10.11.17,15,5.79,15,16.1Q462.93,175.71,462.91,252.74ZM406.71,393.58h27.66V111.3H406.71Z"/><path class="cls-1" d="M321.64,309.66q0,47.75,0,95.5c0,12-4.86,16.87-16.66,16.89q-25.76,0-51.52,0c-11.65,0-16.77-5.06-16.91-16.81-.11-9.42,0-18.85,0-28.27q0-80.74,0-161.47c0-15,4.83-19.81,20-19.81,15.71,0,31.42,0,47.12,0,12.82,0,18,5.21,18,17.84Q321.65,261.6,321.64,309.66Zm-29.07,84.06v-169H265.44v169Z"/><path class="cls-1" d="M279.53,478.67c-56.18,0-112.36-.25-168.54.22-10.88.09-19.81-10.69-14-20.15,2.2-3.6,7.25-5.54,11.15-8,.91-.57,2.46-.13,3.72-.13H446.39c10.86,0,17,5.69,16.49,15.17a13.22,13.22,0,0,1-12.31,12.78c-2.08.18-4.19.08-6.29.08Z"/><path class="cls-1" d="M179.88,366.1c0,13.62.06,27.25,0,40.87-.06,10-5.07,15-15.11,15.07q-27,.1-54.07,0c-10.19,0-15.4-5.3-15.42-15.6q-.08-40.87,0-81.74c0-9.61,5.33-15.51,15-15.69q27.34-.49,54.7,0c9.82.16,14.85,5.8,14.9,15.6C179.92,338.43,179.88,352.26,179.88,366.1ZM123.62,393.5h27.86V337.8H123.62Z"/><path class="cls-1" d="M406.71,393.58V111.3h27.66V393.58Z"/></svg>