<svg id="Calque_1" data-name="Calque 1" xmlns="http://www.w3.org/2000/svg" viewBox="0 0 566.93 566.93"><defs><style>.cls-1{fill:#a36958;}</style></defs><title>Plan de travail 17Icone</title><path class="cls-1" d="M205.82,321.38c-5.23-12.26-11-24.27-15.54-36.75-10.2-28.25-15.14-57.06-5.35-86.59,14.3-43.14,56.67-71.58,101.34-68.24,45.6,3.42,82.85,36.42,91.23,81.15,6,31.93-3,61.35-15.89,90-2.91,6.47-6.12,12.8-10,20.87H385c25.67,0,33.76,5.73,42.27,29.67,11.75,33,23,66.29,35.49,99.05,10.2,26.73-8.57,47.76-33.72,47.51-99.54-1-199.09-.38-298.64-.42-29,0-43-19.81-33.4-47.26q18.11-51.79,36.64-103.44c6.12-17.13,16.88-24.58,35.19-24.74,11.66-.1,23.31-.09,35-.17A8.18,8.18,0,0,0,205.82,321.38ZM279,396.47c29.64-28.14,66.7-86,78.62-122.65,6.7-20.6,10.16-41.54,5.48-63.21-12.93-59.85-85-87-134-50.35-30.61,22.87-42,58.2-31.91,98.95C210.54,313,242.85,355.46,279,396.47ZM148.27,349a16.91,16.91,0,0,0,1.67,2.37c28.75,28.33,57.44,56.74,86.48,84.77,1.93,1.86,7,2.07,9.94,1,36.46-12.88,72.79-26.14,109.16-39.29l65.05-23.53c-3-8.54-5.66-16.37-8.6-24.09-3.84-10-9.63-14-20.38-14.1-13.76-.1-27.52.17-41.27-.13-5.06-.11-7.75,1.74-10.82,5.84q-24.9,33.33-50.82,65.89c-7.57,9.47-10.22,9.55-18.09-.09-17.72-21.71-34.89-43.88-51.91-66.15-2.81-3.68-5-5.66-9.93-5.52-13.75.4-27.51,0-41.27.19C158.44,336.3,151.27,339.65,148.27,349Zm-5,15.77a16.2,16.2,0,0,0-2,2.83C130.46,397.82,119.56,428,109,458.38c-1.3,3.76-1.21,8.37-.52,12.37,1.51,8.77,9.68,13.1,18,10.09,10.62-3.85,21.2-7.82,31.83-11.67,22-8,44-15.86,67.1-24.17Zm193.84,54.79-171.3,62.11.48,1.24h204Zm13-4.67L382,475.65c.69,1.32,1.1,3.11,2.2,3.83,2.49,1.62,5.29,3.74,8,3.82,13.43.38,26.88.33,40.32.12s21.95-9.78,17.93-22.39c-7.83-24.53-17-48.62-25.79-73.28-17.73,6.31-34.78,12.33-51.79,18.46C365.66,408.82,358.5,411.66,350.07,414.86Z"/><path class="cls-1" d="M279.33,271.05c-19.73,0-37.62-17.75-38.06-37.77-.43-19.85,17.84-38.44,38.09-38.74,19.93-.29,38.54,18.15,38.59,38.25C318,252.73,299.51,271,279.33,271.05Z"/></svg>